<?xml version="1.0" encoding="UTF-8" standalone="no"?>
<!DOCTYPE svg PUBLIC "-//W3C//DTD SVG 1.1//EN"
 "http://www.w3.org/Graphics/SVG/1.1/DTD/svg11.dtd">
<!-- Generated by graphviz version 2.42.3 (20191010.1750)
 -->
<!-- Title: Grafts Pages: 1 -->
<svg width="276pt" height="332pt"
 viewBox="0.00 0.00 276.00 332.00" xmlns="http://www.w3.org/2000/svg" xmlns:xlink="http://www.w3.org/1999/xlink">
<g id="graph0" class="graph" transform="scale(1 1) rotate(0) translate(4 328)">
<title>Grafts</title>
<polygon fill="white" stroke="transparent" points="-4,4 -4,-328 272,-328 272,4 -4,4"/>
<!-- A -->
<g id="node1" class="node">
<title>A</title>
<polygon fill="none" stroke="#22aa44" points="232,-36 178,-36 178,0 232,0 232,-36"/>
<text text-anchor="middle" x="205" y="-14.3" font-family="Helvetica,sans-Serif" font-size="14.00">A</text>
</g>
<!-- B -->
<g id="node2" class="node">
<title>B</title>
<polygon fill="none" stroke="#22aa44" stroke-width="2" points="196,-108 142,-108 142,-72 196,-72 196,-108"/>
<text text-anchor="middle" x="169" y="-86.3" font-family="Helvetica,sans-Serif" font-size="14.00">B</text>
<text text-anchor="middle" x="71" y="-111.8" font-family="Helvetica,sans-Serif" font-size="14.00">introductory commit</text>
</g>
<!-- B&#45;&gt;A -->
<g id="edge1" class="edge">
<title>B&#45;&gt;A</title>
<path fill="none" stroke="orange" d="M177.9,-71.7C182,-63.73 186.95,-54.1 191.49,-45.26"/>
<polygon fill="orange" stroke="orange" points="194.74,-46.6 196.2,-36.1 188.52,-43.4 194.74,-46.6"/>
</g>
<!-- C -->
<g id="node3" class="node">
<title>C</title>
<polygon fill="none" stroke="#22aa44" points="196,-180 142,-180 142,-144 196,-144 196,-180"/>
<text text-anchor="middle" x="169" y="-158.3" font-family="Helvetica,sans-Serif" font-size="14.00">C</text>
</g>
<!-- C&#45;&gt;B -->
<g id="edge2" class="edge">
<title>C&#45;&gt;B</title>
<path fill="none" stroke="orange" d="M169,-143.7C169,-135.98 169,-126.71 169,-118.11"/>
<polygon fill="orange" stroke="orange" points="172.5,-118.1 169,-108.1 165.5,-118.1 172.5,-118.1"/>
</g>
<!-- D -->
<g id="node4" class="node">
<title>D</title>
<polygon fill="none" stroke="#22aa44" points="160,-252 106,-252 106,-216 160,-216 160,-252"/>
<text text-anchor="middle" x="133" y="-230.3" font-family="Helvetica,sans-Serif" font-size="14.00">D</text>
</g>
<!-- D&#45;&gt;C -->
<g id="edge3" class="edge">
<title>D&#45;&gt;C</title>
<path fill="none" stroke="orange" d="M141.9,-215.7C146,-207.73 150.95,-198.1 155.49,-189.26"/>
<polygon fill="orange" stroke="orange" points="158.74,-190.6 160.2,-180.1 152.52,-187.4 158.74,-190.6"/>
</g>
<!-- E -->
<g id="node5" class="node">
<title>E</title>
<polygon fill="none" stroke="#22aa44" points="232,-252 178,-252 178,-216 232,-216 232,-252"/>
<text text-anchor="middle" x="205" y="-230.3" font-family="Helvetica,sans-Serif" font-size="14.00">E</text>
</g>
<!-- E&#45;&gt;C -->
<g id="edge4" class="edge">
<title>E&#45;&gt;C</title>
<path fill="none" stroke="darkviolet" d="M196.1,-215.7C192,-207.73 187.05,-198.1 182.51,-189.26"/>
<polygon fill="darkviolet" stroke="darkviolet" points="185.48,-187.4 177.8,-180.1 179.26,-190.6 185.48,-187.4"/>
</g>
<!-- F -->
<g id="node6" class="node">
<title>F</title>
<polygon fill="none" stroke="#22aa44" points="232,-324 178,-324 178,-288 232,-288 232,-324"/>
<text text-anchor="middle" x="205" y="-302.3" font-family="Helvetica,sans-Serif" font-size="14.00">F</text>
</g>
<!-- F&#45;&gt;E -->
<g id="edge5" class="edge">
<title>F&#45;&gt;E</title>
<path fill="none" stroke="darkviolet" d="M205,-287.7C205,-279.98 205,-270.71 205,-262.11"/>
<polygon fill="darkviolet" stroke="darkviolet" points="208.5,-262.1 205,-252.1 201.5,-262.1 208.5,-262.1"/>
</g>
<!-- G -->
<g id="node7" class="node">
<title>G</title>
<polygon fill="#ddeedd" stroke="#ff0000" points="268,-108 214,-108 214,-72 268,-72 268,-108"/>
<text text-anchor="middle" x="241" y="-86.3" font-family="Helvetica,sans-Serif" font-size="14.00" fill="#ff0000">G</text>
</g>
<!-- G&#45;&gt;A -->
<g id="edge6" class="edge">
<title>G&#45;&gt;A</title>
<path fill="none" stroke="red" d="M232.1,-71.7C228,-63.73 223.05,-54.1 218.51,-45.26"/>
<polygon fill="red" stroke="red" points="221.48,-43.4 213.8,-36.1 215.26,-46.6 221.48,-43.4"/>
</g>
<!-- H -->
<g id="node8" class="node">
<title>H</title>
<polygon fill="#ddeedd" stroke="#ff0000" points="268,-180 214,-180 214,-144 268,-144 268,-180"/>
<text text-anchor="middle" x="241" y="-158.3" font-family="Helvetica,sans-Serif" font-size="14.00" fill="#ff0000">H</text>
</g>
<!-- H&#45;&gt;G -->
<g id="edge7" class="edge">
<title>H&#45;&gt;G</title>
<path fill="none" stroke="red" d="M241,-143.7C241,-135.98 241,-126.71 241,-118.11"/>
<polygon fill="red" stroke="red" points="244.5,-118.1 241,-108.1 237.5,-118.1 244.5,-118.1"/>
</g>
</g>
</svg>
