<?xml version="1.0" encoding="UTF-8" standalone="no"?>
<!DOCTYPE svg PUBLIC "-//W3C//DTD SVG 1.1//EN"
 "http://www.w3.org/Graphics/SVG/1.1/DTD/svg11.dtd">
<!-- Generated by graphviz version 2.49.0 (20210828.1703)
 -->
<!-- Title: Guix service Pages: 1 -->
<svg width="1195pt" height="662pt"
 viewBox="0.00 0.00 1194.58 662.08" xmlns="http://www.w3.org/2000/svg" xmlns:xlink="http://www.w3.org/1999/xlink">
<g id="graph0" class="graph" transform="scale(1 1) rotate(0) translate(4 658.08)">
<title>Guix service</title>
<polygon fill="white" stroke="transparent" points="-4,4 -4,-658.08 1190.58,-658.08 1190.58,4 -4,4"/>
<!-- 140222976182944 -->
<g id="node1" class="node">
<title>140222976182944</title>
<polygon fill="none" stroke="black" points="670.58,-54 614.58,-54 614.58,-18 670.58,-18 670.58,-54"/>
<text text-anchor="middle" x="642.58" y="-32.3" font-family="sans" font-size="14.00">home</text>
</g>
<!-- 140222976182912 -->
<g id="node2" class="node">
<title>140222976182912</title>
<polygon fill="none" stroke="black" points="392.58,-200 288.58,-200 288.58,-164 392.58,-164 392.58,-200"/>
<text text-anchor="middle" x="340.58" y="-178.3" font-family="sans" font-size="14.00">home&#45;profile</text>
</g>
<!-- 140222976182912&#45;&gt;140222976182944 -->
<g id="edge1" class="edge">
<title>140222976182912&#45;&gt;140222976182944</title>
<path fill="none" stroke="red" d="M376.41,-163.92C433.98,-136.46 546.55,-82.79 605.14,-54.85"/>
<polygon fill="red" stroke="red" points="606.88,-57.9 614.4,-50.44 603.87,-51.58 606.88,-57.9"/>
</g>
<!-- 140222976183104 -->
<g id="node3" class="node">
<title>140222976183104</title>
<polygon fill="none" stroke="black" points="1026.58,-200 810.58,-200 810.58,-164 1026.58,-164 1026.58,-200"/>
<text text-anchor="middle" x="918.58" y="-178.3" font-family="sans" font-size="14.00">home&#45;environment&#45;variables</text>
</g>
<!-- 140222976183104&#45;&gt;140222976182944 -->
<g id="edge2" class="edge">
<title>140222976183104&#45;&gt;140222976182944</title>
<path fill="none" stroke="#00cdcd" d="M885.84,-163.92C834.14,-136.94 733.92,-84.65 679.65,-56.34"/>
<polygon fill="#00cdcd" stroke="#00cdcd" points="681.2,-53.2 670.71,-51.68 677.96,-59.4 681.2,-53.2"/>
</g>
<!-- 140222976183136 -->
<g id="node4" class="node">
<title>140222976183136</title>
<polygon fill="none" stroke="black" points="792.58,-200 664.58,-200 664.58,-164 792.58,-164 792.58,-200"/>
<text text-anchor="middle" x="728.58" y="-178.3" font-family="sans" font-size="14.00">home&#45;activation</text>
</g>
<!-- 140222976183136&#45;&gt;140222976182944 -->
<g id="edge3" class="edge">
<title>140222976183136&#45;&gt;140222976182944</title>
<path fill="none" stroke="darkgoldenrod" d="M718.38,-163.92C703.44,-138.91 675.51,-92.14 658.04,-62.89"/>
<polygon fill="darkgoldenrod" stroke="darkgoldenrod" points="660.9,-60.85 652.77,-54.06 654.89,-64.44 660.9,-60.85"/>
</g>
<!-- 140222976183168 -->
<g id="node5" class="node">
<title>140222976183168</title>
<polygon fill="none" stroke="black" points="646.08,-200 467.08,-200 467.08,-164 646.08,-164 646.08,-200"/>
<text text-anchor="middle" x="556.58" y="-178.3" font-family="sans" font-size="14.00">home&#45;run&#45;on&#45;first&#45;login</text>
</g>
<!-- 140222976183168&#45;&gt;140222976182944 -->
<g id="edge4" class="edge">
<title>140222976183168&#45;&gt;140222976182944</title>
<path fill="none" stroke="darkviolet" d="M566.78,-163.92C581.72,-138.91 609.65,-92.14 627.12,-62.89"/>
<polygon fill="darkviolet" stroke="darkviolet" points="630.27,-64.44 632.39,-54.06 624.26,-60.85 630.27,-64.44"/>
</g>
<!-- 140223216368000 -->
<g id="node6" class="node">
<title>140223216368000</title>
<polygon fill="none" stroke="black" points="1186.58,-200 1044.58,-200 1044.58,-164 1186.58,-164 1186.58,-200"/>
<text text-anchor="middle" x="1115.58" y="-178.3" font-family="sans" font-size="14.00">home&#45;provenance</text>
</g>
<!-- 140223216368000&#45;&gt;140222976182944 -->
<g id="edge5" class="edge">
<title>140223216368000&#45;&gt;140222976182944</title>
<path fill="none" stroke="darkseagreen" d="M1059.46,-163.92C961.86,-134.2 763.33,-73.76 680.35,-48.5"/>
<polygon fill="darkseagreen" stroke="darkseagreen" points="681.18,-45.09 670.59,-45.53 679.14,-51.79 681.18,-45.09"/>
</g>
<!-- 140222976180704 -->
<g id="node7" class="node">
<title>140222976180704</title>
<polygon fill="none" stroke="black" points="202.08,-200 113.08,-200 113.08,-164 202.08,-164 202.08,-200"/>
<text text-anchor="middle" x="157.58" y="-178.3" font-family="sans" font-size="14.00">home&#45;files</text>
</g>
<!-- 140222976180704&#45;&gt;140222976182944 -->
<g id="edge6" class="edge">
<title>140222976180704&#45;&gt;140222976182944</title>
<path fill="none" stroke="darkgoldenrod" d="M202.34,-167.71C297.06,-139.59 516.34,-74.48 604.68,-48.25"/>
<polygon fill="darkgoldenrod" stroke="darkgoldenrod" points="605.71,-51.6 614.3,-45.4 603.72,-44.89 605.71,-51.6"/>
</g>
<!-- 140222976183040 -->
<g id="node8" class="node">
<title>140222976183040</title>
<polygon fill="none" stroke="black" points="368.08,-490 237.08,-490 237.08,-454 368.08,-454 368.08,-490"/>
<text text-anchor="middle" x="302.58" y="-468.3" font-family="sans" font-size="14.00">home&#45;fontconfig</text>
</g>
<!-- 140222976183040&#45;&gt;140222976182912 -->
<g id="edge7" class="edge">
<title>140222976183040&#45;&gt;140222976182912</title>
<path fill="none" stroke="darkgoldenrod" d="M304.84,-453.85C311.21,-405.62 329.29,-268.57 337.01,-210.04"/>
<polygon fill="darkgoldenrod" stroke="darkgoldenrod" points="340.49,-210.44 338.33,-200.06 333.55,-209.52 340.49,-210.44"/>
</g>
<!-- 140222976183040&#45;&gt;140222976180704 -->
<g id="edge22" class="edge">
<title>140222976183040&#45;&gt;140222976180704</title>
<path fill="none" stroke="darkgoldenrod" d="M236.88,-463.48C167.02,-451.59 59.83,-421.31 9.58,-345 -27.04,-289.39 55.32,-234.21 111.28,-204.79"/>
<polygon fill="darkgoldenrod" stroke="darkgoldenrod" points="113.06,-207.8 120.35,-200.12 109.86,-201.58 113.06,-207.8"/>
</g>
<!-- 140222976180512 -->
<g id="node16" class="node">
<title>140222976180512</title>
<polygon fill="none" stroke="black" points="532.58,-345 368.58,-345 368.58,-309 532.58,-309 532.58,-345"/>
<text text-anchor="middle" x="450.58" y="-323.3" font-family="sans" font-size="14.00">home&#45;run&#45;on&#45;change</text>
</g>
<!-- 140222976183040&#45;&gt;140222976180512 -->
<g id="edge19" class="edge">
<title>140222976183040&#45;&gt;140222976180512</title>
<path fill="none" stroke="darkgoldenrod" d="M320.43,-453.75C346.55,-428.52 395.29,-381.43 425.14,-352.58"/>
<polygon fill="darkgoldenrod" stroke="darkgoldenrod" points="427.91,-354.78 432.67,-345.31 423.04,-349.74 427.91,-354.78"/>
</g>
<!-- 140222879378240 -->
<g id="node9" class="node">
<title>140222879378240</title>
<polygon fill="none" stroke="black" points="274.08,-345 179.08,-345 179.08,-309 274.08,-309 274.08,-345"/>
<text text-anchor="middle" x="226.58" y="-323.3" font-family="sans" font-size="14.00">home&#45;bash</text>
</g>
<!-- 140222879378240&#45;&gt;140222976182912 -->
<g id="edge8" class="edge">
<title>140222879378240&#45;&gt;140222976182912</title>
<path fill="none" stroke="darkgoldenrod" d="M240.33,-308.75C260.28,-283.73 297.35,-237.23 320.4,-208.32"/>
<polygon fill="darkgoldenrod" stroke="darkgoldenrod" points="323.28,-210.31 326.78,-200.31 317.81,-205.95 323.28,-210.31"/>
</g>
<!-- 140222879378240&#45;&gt;140222976180704 -->
<g id="edge23" class="edge">
<title>140222879378240&#45;&gt;140222976180704</title>
<path fill="none" stroke="darkgoldenrod" d="M218.26,-308.75C206.34,-284.06 184.32,-238.42 170.34,-209.44"/>
<polygon fill="darkgoldenrod" stroke="darkgoldenrod" points="173.43,-207.8 165.93,-200.31 167.13,-210.84 173.43,-207.8"/>
</g>
<!-- 140222976180640 -->
<g id="node10" class="node">
<title>140222976180640</title>
<polygon fill="none" stroke="black" points="514.58,-490 410.58,-490 410.58,-454 514.58,-454 514.58,-490"/>
<text text-anchor="middle" x="462.58" y="-468.3" font-family="sans" font-size="14.00">home&#45;mcron</text>
</g>
<!-- 140222976180640&#45;&gt;140222976182912 -->
<g id="edge9" class="edge">
<title>140222976180640&#45;&gt;140222976182912</title>
<path fill="none" stroke="magenta" d="M442.72,-453.66C418.53,-431.24 378.55,-389.74 359.58,-345 340.81,-300.73 338.58,-243.91 339.21,-210.67"/>
<polygon fill="magenta" stroke="magenta" points="342.72,-210.45 339.51,-200.36 335.72,-210.25 342.72,-210.45"/>
</g>
<!-- 140222976180576 -->
<g id="node11" class="node">
<title>140222976180576</title>
<polygon fill="none" stroke="black" points="676.58,-345 550.58,-345 550.58,-309 676.58,-309 676.58,-345"/>
<text text-anchor="middle" x="613.58" y="-323.3" font-family="sans" font-size="14.00">home&#45;shepherd</text>
</g>
<!-- 140222976180640&#45;&gt;140222976180576 -->
<g id="edge13" class="edge">
<title>140222976180640&#45;&gt;140222976180576</title>
<path fill="none" stroke="magenta" d="M480.8,-453.75C507.55,-428.41 557.59,-381.02 588.02,-352.21"/>
<polygon fill="magenta" stroke="magenta" points="590.45,-354.73 595.3,-345.31 585.64,-349.65 590.45,-354.73"/>
</g>
<!-- 140222976180576&#45;&gt;140222976182912 -->
<g id="edge10" class="edge">
<title>140222976180576&#45;&gt;140222976182912</title>
<path fill="none" stroke="#00cdcd" d="M580.92,-308.89C531.29,-282.89 436.88,-233.44 382.33,-204.87"/>
<polygon fill="#00cdcd" stroke="#00cdcd" points="383.76,-201.67 373.28,-200.13 380.51,-207.87 383.76,-201.67"/>
</g>
<!-- 140222976180576&#45;&gt;140222976183136 -->
<g id="edge17" class="edge">
<title>140222976180576&#45;&gt;140222976183136</title>
<path fill="none" stroke="#00cdcd" d="M627.45,-308.75C647.57,-283.73 684.97,-237.23 708.22,-208.32"/>
<polygon fill="#00cdcd" stroke="#00cdcd" points="711.12,-210.3 714.66,-200.31 705.67,-205.91 711.12,-210.3"/>
</g>
<!-- 140222976180576&#45;&gt;140222976183168 -->
<g id="edge20" class="edge">
<title>140222976180576&#45;&gt;140222976183168</title>
<path fill="none" stroke="#00cdcd" d="M606.71,-308.75C596.91,-284.16 578.83,-238.82 567.27,-209.82"/>
<polygon fill="#00cdcd" stroke="#00cdcd" points="570.44,-208.3 563.48,-200.31 563.93,-210.9 570.44,-208.3"/>
</g>
<!-- 140223216369280 -->
<g id="node12" class="node">
<title>140223216369280</title>
<polygon fill="none" stroke="black" points="492.08,-636 433.08,-636 433.08,-600 492.08,-600 492.08,-636"/>
<text text-anchor="middle" x="462.58" y="-614.3" font-family="sans" font-size="14.00">idutils</text>
</g>
<!-- 140223216369280&#45;&gt;140222976180640 -->
<g id="edge11" class="edge">
<title>140223216369280&#45;&gt;140222976180640</title>
<path fill="none" stroke="blue" d="M462.58,-599.92C462.58,-575.34 462.58,-529.75 462.58,-500.43"/>
<polygon fill="blue" stroke="blue" points="466.08,-500.06 462.58,-490.06 459.08,-500.06 466.08,-500.06"/>
</g>
<!-- 140222879378176 -->
<g id="node13" class="node">
<title>140222879378176</title>
<polygon fill="none" stroke="black" points="670.08,-490 557.08,-490 557.08,-454 670.08,-454 670.08,-490"/>
<text text-anchor="middle" x="613.58" y="-468.3" font-family="sans" font-size="14.00">home&#45;redshift</text>
</g>
<!-- 140222879378176&#45;&gt;140222976180576 -->
<g id="edge12" class="edge">
<title>140222879378176&#45;&gt;140222976180576</title>
<path fill="none" stroke="blue" d="M613.58,-453.75C613.58,-429.38 613.58,-384.61 613.58,-355.59"/>
<polygon fill="blue" stroke="blue" points="617.08,-355.31 613.58,-345.31 610.08,-355.31 617.08,-355.31"/>
</g>
<!-- 140222976183008 -->
<g id="node14" class="node">
<title>140222976183008</title>
<polygon fill="none" stroke="black" points="1098.08,-345 895.08,-345 895.08,-309 1098.08,-309 1098.08,-345"/>
<text text-anchor="middle" x="996.58" y="-323.3" font-family="sans" font-size="14.00">home&#45;xdg&#45;base&#45;directories</text>
</g>
<!-- 140222976183008&#45;&gt;140222976183104 -->
<g id="edge14" class="edge">
<title>140222976183008&#45;&gt;140222976183104</title>
<path fill="none" stroke="dimgrey" d="M987.17,-308.75C973.7,-284.06 948.81,-238.42 933.01,-209.44"/>
<polygon fill="dimgrey" stroke="dimgrey" points="935.88,-207.41 928.02,-200.31 929.74,-210.77 935.88,-207.41"/>
</g>
<!-- 140222976183008&#45;&gt;140222976183136 -->
<g id="edge15" class="edge">
<title>140222976183008&#45;&gt;140222976183136</title>
<path fill="none" stroke="dimgrey" d="M964.52,-308.89C915.79,-282.89 823.12,-233.44 769.56,-204.87"/>
<polygon fill="dimgrey" stroke="dimgrey" points="771.15,-201.75 760.68,-200.13 767.85,-207.92 771.15,-201.75"/>
</g>
<!-- 140222976183072 -->
<g id="node15" class="node">
<title>140222976183072</title>
<polygon fill="none" stroke="black" points="876.58,-345 694.58,-345 694.58,-309 876.58,-309 876.58,-345"/>
<text text-anchor="middle" x="785.58" y="-323.3" font-family="sans" font-size="14.00">home&#45;symlink&#45;manager</text>
</g>
<!-- 140222976183072&#45;&gt;140222976183136 -->
<g id="edge16" class="edge">
<title>140222976183072&#45;&gt;140222976183136</title>
<path fill="none" stroke="blue" d="M778.71,-308.75C768.91,-284.16 750.83,-238.82 739.27,-209.82"/>
<polygon fill="blue" stroke="blue" points="742.44,-208.3 735.48,-200.31 735.93,-210.9 742.44,-208.3"/>
</g>
<!-- 140222976180512&#45;&gt;140222976183136 -->
<g id="edge18" class="edge">
<title>140222976180512&#45;&gt;140222976183136</title>
<path fill="none" stroke="darkgoldenrod" d="M483.84,-308.89C534.38,-282.89 630.52,-233.44 686.07,-204.87"/>
<polygon fill="darkgoldenrod" stroke="darkgoldenrod" points="687.99,-207.81 695.29,-200.13 684.79,-201.59 687.99,-207.81"/>
</g>
<!-- 140222976182976 -->
<g id="node17" class="node">
<title>140222976182976</title>
<polygon fill="none" stroke="black" points="160.58,-345 18.58,-345 18.58,-309 160.58,-309 160.58,-345"/>
<text text-anchor="middle" x="89.58" y="-323.3" font-family="sans" font-size="14.00">home&#45;shell&#45;profile</text>
</g>
<!-- 140222976182976&#45;&gt;140222976180704 -->
<g id="edge21" class="edge">
<title>140222976182976&#45;&gt;140222976180704</title>
<path fill="none" stroke="darkviolet" d="M97.78,-308.75C109.53,-284.06 131.23,-238.42 145.01,-209.44"/>
<polygon fill="darkviolet" stroke="darkviolet" points="148.22,-210.84 149.35,-200.31 141.89,-207.84 148.22,-210.84"/>
</g>
</g>
</svg>
