<?xml version="1.0" encoding="UTF-8" standalone="no"?>
<!DOCTYPE svg PUBLIC "-//W3C//DTD SVG 1.1//EN"
 "http://www.w3.org/Graphics/SVG/1.1/DTD/svg11.dtd">
<!-- Generated by graphviz version 2.40.1 (20161225.0304)
 -->
<!-- Title: Grafts Pages: 1 -->
<svg width="198pt" height="267pt"
 viewBox="0.00 0.00 198.00 267.00" xmlns="http://www.w3.org/2000/svg" xmlns:xlink="http://www.w3.org/1999/xlink">
<g id="graph0" class="graph" transform="scale(1 1) rotate(0) translate(4 263)">
<title>Grafts</title>
<polygon fill="#ffffff" stroke="transparent" points="-4,4 -4,-263 194,-263 194,4 -4,4"/>
<!-- perl -->
<g id="node1" class="node">
<title>perl</title>
<polygon fill="none" stroke="#000000" points="54,-108 0,-108 0,-72 54,-72 54,-108"/>
<text text-anchor="middle" x="27" y="-86.3" font-family="Helvetica,sans-Serif" font-size="14.00" fill="#000000">perl</text>
</g>
<!-- libc -->
<g id="node3" class="node">
<title>libc</title>
<polygon fill="none" stroke="#000000" points="109,-36 55,-36 55,0 109,0 109,-36"/>
<text text-anchor="middle" x="82" y="-14.3" font-family="Helvetica,sans-Serif" font-size="14.00" fill="#000000">glibc</text>
</g>
<!-- perl&#45;&gt;libc -->
<g id="edge3" class="edge">
<title>perl&#45;&gt;libc</title>
<path fill="none" stroke="#9400d3" d="M40.8788,-71.8314C47.2136,-63.5386 54.8384,-53.557 61.7926,-44.4533"/>
<polygon fill="#9400d3" stroke="#9400d3" points="64.6452,-46.4847 67.9343,-36.4133 59.0825,-42.2353 64.6452,-46.4847"/>
</g>
<!-- inkscape -->
<g id="node2" class="node">
<title>inkscape</title>
<polygon fill="none" stroke="#000000" points="117,-180 47,-180 47,-144 117,-144 117,-180"/>
<text text-anchor="middle" x="82" y="-158.3" font-family="Helvetica,sans-Serif" font-size="14.00" fill="#000000">inkscape</text>
</g>
<!-- inkscape&#45;&gt;perl -->
<g id="edge1" class="edge">
<title>inkscape&#45;&gt;perl</title>
<path fill="none" stroke="#9400d3" d="M68.1212,-143.8314C61.7864,-135.5386 54.1616,-125.557 47.2074,-116.4533"/>
<polygon fill="#9400d3" stroke="#9400d3" points="49.9175,-114.2353 41.0657,-108.4133 44.3548,-118.4847 49.9175,-114.2353"/>
</g>
<!-- inkscape&#45;&gt;libc -->
<g id="edge2" class="edge">
<title>inkscape&#45;&gt;libc</title>
<path fill="none" stroke="#9400d3" d="M82,-143.7623C82,-119.201 82,-75.2474 82,-46.3541"/>
<polygon fill="#9400d3" stroke="#9400d3" points="85.5001,-46.0896 82,-36.0896 78.5001,-46.0897 85.5001,-46.0896"/>
</g>
<!-- inkscapeg -->
<g id="node4" class="node">
<title>inkscapeg</title>
<polygon fill="none" stroke="#696969" points="181.5,-259 44.5,-259 44.5,-216 181.5,-216 181.5,-259"/>
<text text-anchor="middle" x="113" y="-233.8" font-family="Helvetica,sans-Serif" font-size="14.00" fill="#696969">inkscape (grafted)</text>
</g>
<!-- inkscapeg&#45;&gt;inkscape -->
<g id="edge5" class="edge">
<title>inkscapeg&#45;&gt;inkscape</title>
<path fill="none" stroke="#ffa500" d="M104.0335,-215.6623C100.7433,-207.6489 96.9722,-198.4647 93.4909,-189.986"/>
<polygon fill="#ffa500" stroke="#ffa500" points="96.6195,-188.3906 89.5835,-180.4694 90.1441,-191.0494 96.6195,-188.3906"/>
</g>
<!-- perlf -->
<g id="node5" class="node">
<title>perlf</title>
<polygon fill="none" stroke="#000000" points="190,-108 110,-108 110,-72 190,-72 190,-108"/>
<text text-anchor="middle" x="150" y="-86.3" font-family="Helvetica,sans-Serif" font-size="14.00" fill="#000000">perl (fixed)</text>
</g>
<!-- inkscapeg&#45;&gt;perlf -->
<g id="edge6" class="edge">
<title>inkscapeg&#45;&gt;perlf</title>
<path fill="none" stroke="#ffa500" d="M118.4595,-215.7359C124.9763,-189.7568 135.8855,-146.2671 143.0122,-117.8569"/>
<polygon fill="#ffa500" stroke="#ffa500" points="146.4131,-118.6837 145.4515,-108.1326 139.6235,-116.9805 146.4131,-118.6837"/>
</g>
<!-- perlf&#45;&gt;libc -->
<g id="edge4" class="edge">
<title>perlf&#45;&gt;libc</title>
<path fill="none" stroke="#9400d3" d="M132.8407,-71.8314C124.8489,-63.3694 115.1962,-53.1489 106.4584,-43.8971"/>
<polygon fill="#9400d3" stroke="#9400d3" points="108.8011,-41.2802 99.3903,-36.4133 103.712,-46.0866 108.8011,-41.2802"/>
</g>
</g>
</svg>
