<?xml version="1.0" encoding="UTF-8" standalone="no"?>
<svg
   xmlns:dc="http://purl.org/dc/elements/1.1/"
   xmlns:cc="http://creativecommons.org/ns#"
   xmlns:rdf="http://www.w3.org/1999/02/22-rdf-syntax-ns#"
   xmlns:svg="http://www.w3.org/2000/svg"
   xmlns="http://www.w3.org/2000/svg"
   xmlns:sodipodi="http://sodipodi.sourceforge.net/DTD/sodipodi-0.dtd"
   xmlns:inkscape="http://www.inkscape.org/namespaces/inkscape"
   width="700"
   height="200"
   id="svg2"
   version="1.1"
   inkscape:version="1.0.1 (3bc2e813f5, 2020-09-07)"
   sodipodi:docname="logo.svg">
  <title
     id="title92">Cuirass Logo</title>
  <defs
     id="defs4" />
  <sodipodi:namedview
     id="base"
     pagecolor="#ffffff"
     bordercolor="#666666"
     borderopacity="1.0"
     inkscape:pageopacity="0"
     inkscape:pageshadow="2"
     inkscape:zoom="1"
     inkscape:cx="377.94543"
     inkscape:cy="151.25071"
     inkscape:document-units="px"
     inkscape:current-layer="layer1"
     showgrid="false"
     inkscape:window-width="1920"
     inkscape:window-height="1016"
     inkscape:window-x="0"
     inkscape:window-y="27"
     inkscape:window-maximized="1"
     inkscape:showpageshadow="false"
     borderlayer="true"
     inkscape:document-rotation="0"
     inkscape:snap-global="true"
     showguides="true"
     inkscape:guide-bbox="true"
     inkscape:snap-bbox="true"
     fit-margin-top="0"
     fit-margin-left="0"
     fit-margin-right="0"
     fit-margin-bottom="0"
     showborder="false">
    <inkscape:grid
       type="axonomgrid"
       id="grid3004"
       units="mm"
       empspacing="5"
       visible="true"
       enabled="true"
       snapvisiblegridlinesonly="true"
       spacingy="3.7mm"
       originx="-8372.373"
       originy="-1768.1381" />
  </sodipodi:namedview>
  <metadata
     id="metadata7">
    <rdf:RDF>
      <cc:Work
         rdf:about="">
        <dc:format>image/svg+xml</dc:format>
        <dc:type
           rdf:resource="http://purl.org/dc/dcmitype/StillImage" />
        <dc:title>Cuirass Logo</dc:title>
        <dc:date>2021-01-09</dc:date>
        <dc:creator>
          <cc:Agent>
            <dc:title>Luis Felipe López Acevedo</dc:title>
          </cc:Agent>
        </dc:creator>
        <dc:rights>
          <cc:Agent>
            <dc:title />
          </cc:Agent>
        </dc:rights>
        <cc:license
           rdf:resource="http://creativecommons.org/licenses/by-sa/4.0/" />
      </cc:Work>
      <cc:License
         rdf:about="http://creativecommons.org/licenses/by-sa/4.0/">
        <cc:permits
           rdf:resource="http://creativecommons.org/ns#Reproduction" />
        <cc:permits
           rdf:resource="http://creativecommons.org/ns#Distribution" />
        <cc:requires
           rdf:resource="http://creativecommons.org/ns#Notice" />
        <cc:requires
           rdf:resource="http://creativecommons.org/ns#Attribution" />
        <cc:permits
           rdf:resource="http://creativecommons.org/ns#DerivativeWorks" />
        <cc:requires
           rdf:resource="http://creativecommons.org/ns#ShareAlike" />
      </cc:License>
    </rdf:RDF>
  </metadata>
  <g
     inkscape:groupmode="layer"
     id="layer2"
     inkscape:label="ref"
     sodipodi:insensitive="true"
     transform="translate(-8357.2549,-1736.0121)" />
  <g
     inkscape:label="layer"
     inkscape:groupmode="layer"
     id="layer1"
     transform="translate(-8357.2549,-2588.3743)">
    <g
       id="g1595"
       transform="translate(136.05447,986.25124)">
      <g
         id="g1524"
         transform="matrix(1.4170317,0,0,1.4170317,398.16584,-460.82353)">
        <path
           id="path1060"
           style="fill:#241f31;fill-opacity:1;stroke-width:16.4554"
           d="m 158.93555,900.05359 v 0.0625 c -0.42913,0.0235 -0.85804,0.0585 -1.28711,0.0898 v 297.84181 c 0.42893,0.04 0.85752,0.085 1.28711,0.1172 v 0.078 c 0.16835,-0.011 0.33565,-0.027 0.5039,-0.039 0.16775,0.012 0.33617,0.027 0.50391,0.039 v -0.078 c 28.00081,-2.1232 55.32556,-14.294 82.04102,-35.5644 9.41018,-48.5083 13.91393,-87.3832 15.04882,-119.6407 a 43.20307,71.891757 0 0 1 -25.44336,-65.53516 43.20307,71.891757 0 0 1 11.70313,-49.20117 c -0.4312,-1.42556 -0.86686,-2.843 -1.30859,-4.24805 -27.36321,-14.45799 -54.70902,-22.36429 -82.04102,-23.85937 v -0.0625 c -0.16754,0.008 -0.33636,0.0244 -0.50391,0.0332 -0.16815,-0.009 -0.33565,-0.025 -0.5039,-0.0332 z" />
        <path
           id="rect966"
           style="fill:#000000;fill-opacity:1;stroke-width:16.4554"
           d="m 153.63281,900.05359 v 0.0625 c -27.33202,1.49508 -54.67781,9.40138 -82.04101,23.85937 -0.44173,1.40505 -0.8774,2.82249 -1.3086,4.24805 a 43.20307,71.891757 0 0 1 11.70313,49.20117 43.20307,71.891757 0 0 1 -25.44336,65.53512 c 1.13489,32.2575 5.63864,71.1324 15.04883,119.6407 26.71546,21.2703 54.04018,33.4411 82.04101,35.5644 v 0.078 c 0.16774,-0.011 0.33421,-0.027 0.50196,-0.039 0.16825,0.012 0.33751,0.027 0.50585,0.039 v -0.078 c 0.717,-0.054 1.43253,-0.1263 2.14844,-0.1953 0.28635,0.028 0.573,0.051 0.85938,0.078 V 900.2059 c -0.28646,0.0209 -0.57293,0.0373 -0.85938,0.0586 -0.7162,-0.0532 -1.43223,-0.10926 -2.14844,-0.14844 v -0.0625 c -0.16824,0.008 -0.3377,0.0243 -0.50585,0.0332 -0.16755,-0.009 -0.33442,-0.0253 -0.50196,-0.0332 z" />
        <path
           id="path990"
           style="fill:#f5c211;stroke-width:16.6238"
           d="m 208.8242,908.38562 a 52.039886,52.039886 0 0 1 -49.3672,35.58203 52.039886,52.039886 0 0 1 -3.582,-0.12305 v 256.9688 c 1.0242,0.1053 2.0482,0.2028 3.0742,0.2812 v 0.08 c 0.1694,-0.012 0.3385,-0.027 0.5078,-0.039 0.1688,0.012 0.3371,0.028 0.5059,0.039 v -0.08 c 28.1764,-2.1534 55.6736,-14.4977 82.5566,-36.0703 9.6043,-49.9002 14.1213,-89.7316 15.1817,-122.7207 a 43.473999,72.91391 0 0 1 -25.6426,-66.49806 43.473999,72.91391 0 0 1 11.5,-49.39844 c -0.3443,-1.13744 -0.6883,-2.27574 -1.0391,-3.40039 -11.2342,-5.98273 -22.4664,-10.8412 -33.6953,-14.62109 z" />
        <path
           id="path1020"
           style="fill:#f6d32d;stroke-width:16.6238"
           d="m 104.752,908.38562 a 52.039886,52.039886 0 0 0 49.3672,35.58203 52.039886,52.039886 0 0 0 3.582,-0.12305 v 256.9688 c -1.0242,0.1053 -2.0482,0.2028 -3.0742,0.2812 v 0.08 c -0.1694,-0.012 -0.3385,-0.027 -0.5078,-0.039 -0.1688,0.012 -0.3371,0.028 -0.5059,0.039 v -0.08 c -28.1764,-2.1534 -55.6736,-14.4977 -82.5566,-36.0703 -9.6043,-49.9002 -14.1213,-89.7316 -15.1817,-122.7207 a 43.473999,72.91391 0 0 0 25.6426,-66.49806 43.473999,72.91391 0 0 0 -11.5,-49.39844 c 0.3443,-1.13744 0.6883,-2.27574 1.0391,-3.40039 11.2342,-5.98273 22.4664,-10.8412 33.6953,-14.62109 z" />
        <path
           id="path1256"
           style="fill:#e5a50a;stroke-width:16.6238"
           d="m 68.019531,1146.7934 c 0.95277,5.3557 1.95827,10.8147 3.03711,16.4199 26.883,21.5726 54.380239,29.9169 82.556639,32.0703 v 0.08 c 0.1688,-0.011 0.33706,-0.027 0.50586,-0.039 0.1693,0.012 0.33841,0.027 0.50781,0.039 v -0.08 c 0.72158,-0.055 1.44175,-0.127 2.16211,-0.1972 0.71972,0.07 1.43923,0.1422 2.16016,0.1972 v 0.08 c 0.1694,-0.012 0.33851,-0.027 0.50781,-0.039 0.1688,0.012 0.33706,0.028 0.50586,0.039 v -0.08 c 28.1764,-2.1534 55.67364,-10.4977 82.55664,-32.0703 1.07884,-5.6052 2.08434,-11.0642 3.03711,-16.4199 -27.83013,21.0206 -56.28472,29.0753 -85.43359,31.2012 v 0.08 c -0.17732,-0.011 -0.35394,-0.027 -0.53125,-0.039 -0.17784,0.012 -0.35526,0.027 -0.53321,0.039 v -0.08 c -0.45291,-0.033 -0.90508,-0.076 -1.35742,-0.1172 -0.3039,-0.028 -0.60825,-0.052 -0.91211,-0.08 -0.30452,0.028 -0.60949,0.052 -0.91406,0.08 -0.45233,0.041 -0.90448,0.084 -1.35742,0.1172 v 0.08 c -0.17795,-0.012 -0.35538,-0.027 -0.5332,-0.039 -0.17732,0.012 -0.35392,0.028 -0.53126,0.039 v -0.08 c -29.14887,-2.126 -57.603469,-10.1806 -85.433589,-31.2012 z"
           sodipodi:nodetypes="ccccccccccccccccccccccccccccc" />
        <path
           id="path1029"
           style="fill:#241f31;stroke-width:16.6238"
           d="m 229.94531,916.7782 a 61.583187,88.295067 0 0 0 -16.3457,59.9082 61.583187,88.295067 0 0 0 43.16992,84.2559 c 0.42902,-6.4481 0.73944,-12.6594 0.93164,-18.6387 a 43.473999,72.91391 0 0 1 -25.64258,-66.49806 43.473999,72.91391 0 0 1 11.5,-49.39844 c -0.3443,-1.13744 -0.68826,-2.27574 -1.03906,-3.40039 -4.19199,-2.23243 -8.38285,-4.30679 -12.57422,-6.22851 z" />
        <path
           id="path1031"
           style="fill:#241f31;stroke-width:16.6238"
           d="m 104.75195,908.38562 c -4.46597,1.50334 -8.93345,3.1838 -13.40039,5.03125 a 67.466774,61.583187 0 0 0 64,46.26953 v 0.006 a 67.466774,61.583187 0 0 0 0.99805,0.008 67.466774,61.583187 0 0 0 0.0937,0 67.466774,61.583187 0 0 0 0.16602,0 67.466774,61.583187 0 0 0 0.0937,0 67.466774,61.583187 0 0 0 0.99805,-0.008 v -0.006 a 67.466774,61.583187 0 0 0 64,-46.26953 c -4.46694,-1.84745 -8.93442,-3.52791 -13.40039,-5.03125 a 52.039886,52.039886 0 0 1 -49.36719,35.58203 52.039886,52.039886 0 0 1 -1.23242,-0.0156 v -0.10742 a 52.039886,52.039886 0 0 1 -1.17383,0.0664 52.039886,52.039886 0 0 1 -1.17578,-0.0664 v 0.10742 a 52.039886,52.039886 0 0 1 -1.23242,0.0156 52.039886,52.039886 0 0 1 -49.36719,-35.58203 z" />
        <path
           id="path1244"
           style="opacity:1;fill:#e5a50a;fill-opacity:1;stroke:none;stroke-width:23.3025;stroke-opacity:1"
           d="m 85.451172,73.148438 a 74.736336,31.772606 0 0 1 -3.962891,1.673828 55.417729,76.750036 0 0 1 18.414063,57.128904 55.417729,76.750036 0 0 1 -42.890625,74.76172 l 0.140625,1.31836 A 55.417729,76.750036 0 0 0 105.25586,131.95117 55.417729,76.750036 0 0 0 85.451172,73.148438 Z"
           transform="translate(0,852.36218)" />
        <path
           id="path1041"
           style="fill:#241f31;stroke-width:16.6238"
           d="m 83.35547,916.7782 a 61.583187,88.295067 0 0 1 16.3457,59.9082 61.583187,88.295067 0 0 1 -43.16992,84.2559 c -0.42902,-6.4481 -0.73944,-12.6594 -0.93164,-18.6387 a 43.473999,72.91391 0 0 0 25.64258,-66.49806 43.473999,72.91391 0 0 0 -11.5,-49.39844 c 0.3443,-1.13744 0.68826,-2.27574 1.03906,-3.40039 4.19199,-2.23243 8.38285,-4.30679 12.57422,-6.22851 z" />
        <circle
           style="opacity:1;fill:#f6d32d;fill-opacity:1;stroke:none;stroke-width:4.41688;stroke-opacity:1"
           id="path1080"
           cx="157.44824"
           cy="952.2066"
           r="3.3745961" />
        <path
           id="path1104"
           style="fill:#241f31;stroke-width:16.6238"
           d="m 68.019531,296.24219 c 0.95277,5.3557 1.95827,10.81472 3.03711,16.41992 26.883,21.5726 54.380239,33.91691 82.556639,36.07031 v 0.0801 c 0.1688,-0.011 0.33706,-0.0271 0.50586,-0.0391 0.1693,0.012 0.33841,0.0271 0.50781,0.0391 v -0.0801 c 0.72158,-0.0548 1.44175,-0.12707 2.16211,-0.19726 0.71972,0.07 1.43923,0.14217 2.16016,0.19726 v 0.0801 c 0.1694,-0.012 0.33851,-0.0271 0.50781,-0.0391 0.1688,0.012 0.33706,0.0281 0.50586,0.0391 v -0.0801 c 28.1764,-2.1534 55.67364,-14.49771 82.55664,-36.07031 1.07884,-5.6052 2.08434,-11.06422 3.03711,-16.41992 -27.83013,21.0206 -56.28472,33.07527 -85.43359,35.20117 v 0.0801 c -0.17732,-0.011 -0.35394,-0.0271 -0.53125,-0.0391 -0.17784,0.012 -0.35526,0.0271 -0.53321,0.0391 v -0.0801 c -0.45291,-0.0329 -0.90508,-0.0761 -1.35742,-0.11719 -0.3039,-0.028 -0.60825,-0.0521 -0.91211,-0.0801 -0.30452,0.028 -0.60949,0.0521 -0.91406,0.0801 -0.45233,0.041 -0.90448,0.0843 -1.35742,0.11719 v 0.0801 c -0.17795,-0.012 -0.35538,-0.0271 -0.5332,-0.0391 -0.17732,0.012 -0.35392,0.0281 -0.53126,0.0391 v -0.0801 c -29.14887,-2.126 -57.603469,-14.18057 -85.433589,-35.20117 z"
           transform="translate(0,852.36218)" />
        <circle
           style="opacity:1;fill:#f6d32d;fill-opacity:1;stroke:none;stroke-width:4.41688;stroke-opacity:1"
           id="circle1110"
           cx="157.44824"
           cy="1192.2065"
           r="3.3745961" />
        <circle
           style="opacity:1;fill:#f6d32d;fill-opacity:1;stroke:none;stroke-width:4.41688;stroke-opacity:1"
           id="circle1112"
           cx="224.526"
           cy="994.88129"
           r="3.3745961" />
        <circle
           style="opacity:1;fill:#f6d32d;fill-opacity:1;stroke:none;stroke-width:4.41688;stroke-opacity:1"
           id="circle1114"
           cx="88.469063"
           cy="994.88129"
           r="3.3745961" />
        <path
           id="path1230"
           style="opacity:1;fill:#f9f06b;fill-opacity:1;stroke:none;stroke-width:19.6016;stroke-opacity:1"
           d="m 218.20222,912.96485 a 61.749528,48.738083 0 0 1 -61.67474,46.38476 61.749528,48.738083 0 0 1 -61.676973,-46.38281 61.749528,48.738083 0 0 0 -0.07427,2.35156 61.749528,48.738083 0 0 0 61.751303,48.73829 61.749528,48.738083 0 0 0 61.74907,-48.73829 61.749528,48.738083 0 0 0 -0.0743,-2.35351 z" />
        <path
           style="fill:#241f31;fill-opacity:1;stroke:none;stroke-width:1px;stroke-linecap:butt;stroke-linejoin:miter;stroke-opacity:1"
           d="m 105,908.38562 c -11.67482,3.96603 -23.14489,8.62403 -34.21875,14.62109 l -1.03907,3.40039 5.45663,12.71903 38.04759,-15.5747 C 109.83745,918.8674 106.58924,914.09298 105,908.38562 Z"
           id="path1050"
           sodipodi:nodetypes="cccccc" />
        <path
           style="fill:#241f31;fill-opacity:1;stroke:none;stroke-width:1px;stroke-linecap:butt;stroke-linejoin:miter;stroke-opacity:1"
           d="m 208.30078,908.38562 c 11.67482,3.96603 23.14489,8.62403 34.21875,14.62109 l 1.03907,3.40039 -5.45663,12.71903 -38.04759,-15.5747 c 3.40895,-4.68403 6.65716,-9.45845 8.2464,-15.16581 z"
           id="path1048"
           sodipodi:nodetypes="cccccc" />
        <path
           id="path1084"
           style="opacity:1;fill:#ffffff;fill-opacity:1;stroke:none;stroke-width:18.2524;stroke-opacity:1"
           d="m 210.00391,893.74304 a 53.54142,48.738083 0 0 1 -53.47657,46.38476 53.54142,48.738083 0 0 1 -53.47851,-46.38281 53.54142,48.738083 0 0 0 -0.0644,2.35156 53.54142,48.738083 0 0 0 53.54296,48.73829 53.54142,48.738083 0 0 0 53.54102,-48.73829 53.54142,48.738083 0 0 0 -0.0644,-2.35351 z" />
        <circle
           style="opacity:1;fill:#f6d32d;fill-opacity:1;stroke:none;stroke-width:4.41688;stroke-opacity:1"
           id="circle1236"
           cx="157.44824"
           cy="1192.2065"
           r="3.3745961" />
        <ellipse
           style="opacity:1;fill:#f6d32d;fill-opacity:1;stroke:none;stroke-width:3.17504;stroke-opacity:1"
           id="circle1238"
           cx="-437.17578"
           cy="1079.9753"
           rx="2.1686487"
           ry="2.7134423"
           transform="rotate(-25.843578)" />
        <ellipse
           style="opacity:1;fill:#f6d32d;fill-opacity:1;stroke:none;stroke-width:3.17504;stroke-opacity:1"
           id="ellipse1240"
           cx="-719.74829"
           cy="943.10919"
           rx="2.1686487"
           ry="2.7134423"
           transform="matrix(-0.89998748,-0.43591574,-0.43591574,0.89998748,0,0)" />
      </g>
      <path
         id="path1535"
         style="fill:#ffffff;stroke:none;stroke-width:2.02185px;stroke-linecap:butt;stroke-linejoin:miter;stroke-opacity:1"
         d="m 446.17773,978.12695 c -7.8651,5.6714 -15.73048,11.34242 -23.5957,17.01367 -7.50133,-5.62692 -15.00245,-11.25411 -22.50391,-16.88085 -11.06633,8.24012 -22.13563,16.47626 -33.20312,24.71483 -12.34402,-7.74228 -24.7154,-15.4418 -37.07617,-23.15819 -14.68395,10.90274 -29.36786,21.80559 -44.05274,32.70699 0,27.711 0,55.4219 0,83.1328 15.14907,6.0043 30.29716,12.0111 45.44532,18.0176 14.61198,-9.1336 29.22724,-18.2619 43.83984,-27.3945 -14.76145,-6.0919 -29.52069,-12.1892 -44.28125,-18.2832 0,-11.474 0,-22.9479 0,-34.4219 4.62769,2.0422 9.2546,4.086 13.88281,6.127 7.59998,-8.7579 15.20338,-17.5128 22.80469,-26.2696 6.62695,4.058 13.25391,8.1159 19.88086,12.1739 0,24.7194 0,49.4388 0,74.1582 13.8246,5.3711 27.64888,10.7431 41.47461,16.1113 4.3129,-3.8043 8.62634,-7.608 12.93945,-11.4121 6.02355,4.0304 12.04619,8.0622 18.07031,12.0918 13.33743,-8.2771 26.67508,-16.5537 40.01172,-24.832 -8.09299,-6.5475 -16.18482,-13.0965 -24.27734,-19.6446 0,-24.2689 0,-48.5377 0,-72.80662 -9.38105,-7.34006 -18.76163,-14.68074 -28.14063,-22.02343 -0.40625,0.29297 -0.8125,0.58593 -1.21875,0.8789 z m 185.90235,2.32227 c -4.7111,5.44936 -9.42747,10.8942 -14.14063,16.3418 -6.40446,-4.23869 -12.80755,-8.47945 -19.21289,-12.7168 -13.50592,9.43871 -27.0119,18.87738 -40.51758,28.31638 9.78514,5.5312 19.57171,11.0598 29.35743,16.5899 0,24.289 0,48.5781 0,72.8672 13.49315,3.8843 26.98604,7.7695 40.47851,11.6562 12.42967,-8.1071 24.86079,-16.2121 37.29102,-24.3184 0,2.1817 0,4.3633 0,6.545 10.62393,5.5386 21.24853,11.0759 31.87109,16.6172 4.31783,-3.776 8.6368,-7.5507 12.95508,-11.3262 4.75317,3.4064 9.50712,6.8116 14.25977,10.2187 9.88221,-7.1924 19.76712,-14.3812 29.65039,-21.5722 -0.76608,0.8089 -1.52838,1.6213 -2.29297,2.4316 18.86127,6.9899 37.72158,13.9825 56.58203,20.9746 16.60885,-19.5015 33.21361,-39.0064 49.82031,-58.5097 -7.33524,-6.8243 -14.67058,-13.6485 -22.00586,-20.4727 9.19299,-11.2015 18.3891,-22.4004 27.58008,-33.6035 -16.1523,-6.35494 -32.30488,-12.70917 -48.45703,-19.06447 -16.2929,16.57691 -32.58403,33.15557 -48.875,49.73437 7.35022,7.3418 14.69912,14.685 22.04883,22.0273 -7.2821,7.7206 -14.56236,15.4429 -21.84375,23.1641 -7.98763,-3.373 -15.97526,-6.7461 -23.96289,-10.1191 1.03017,-22.5586 2.0585,-45.1173 3.08984,-67.67581 -13.93697,-5.37171 -27.87296,-10.74594 -41.80859,-16.1211 -12.87034,12.8699 -25.74094,25.73951 -38.61133,38.60941 0,21.0384 0,42.0768 0,63.1152 -11.15104,-4.7969 -22.30209,-9.5937 -33.45313,-14.3906 0,-12.5964 0,-25.1927 0,-37.7891 2.60868,1.3308 5.21806,2.6603 7.82617,3.9922 10.74695,-12.0968 21.49334,-24.1941 32.24024,-36.29101 -12.94306,-6.81176 -25.88696,-13.62194 -38.83008,-20.4336 -0.34635,0.40105 -0.69271,0.80209 -1.03906,1.20313 z m 279.52539,1.91797 c -15.98237,16.26308 -31.96428,32.52661 -47.94531,48.79101 7.35022,7.3418 14.69912,14.685 22.04882,22.0273 -12.23234,12.9709 -24.46507,25.9413 -36.69531,38.9141 18.8619,6.99 37.7229,13.9824 56.58399,20.9746 16.60885,-19.5015 33.21361,-39.0064 49.82031,-58.5097 -7.3359,-6.825 -14.67188,-13.6498 -22.00781,-20.4747 9.19297,-11.2008 18.38922,-22.3989 27.58007,-33.6015 -16.1523,-6.35494 -32.30487,-12.70917 -48.45703,-19.06447 -0.30924,0.31445 -0.61849,0.6289 -0.92773,0.94336 z m -388.11719,3.78711 c -13.74894,8.71967 -27.49721,17.4404 -41.24609,26.1602 8.64817,4.723 17.29829,9.4425 25.94726,14.164 0,21.821 0,43.6419 0,65.4629 9.70412,5.9183 19.40615,11.84 29.10938,17.7598 12.79881,-10.1021 25.59568,-20.2066 38.39453,-30.3086 -7.48028,-4.0651 -14.95682,-8.1371 -22.43555,-12.2051 0,-22.9974 0,-45.9948 0,-68.99219 -9.62454,-4.20268 -19.24877,-8.40608 -28.87304,-12.60937 -0.29883,0.18945 -0.59766,0.3789 -0.89649,0.56836 z" />
      <g
         id="g1533"
         transform="translate(-7.0537109,0.62329102)">
        <path
           style="fill:#241f31;stroke:none;stroke-width:2.02185px;stroke-linecap:butt;stroke-linejoin:miter;stroke-opacity:1"
           d="m 302.79917,1088.2367 v -71.3065 l 34.54202,-25.64569 27.62629,17.24469 -15.99543,18.4205 -21.16892,-9.348 v 56.4691 l 32.49166,13.4121 -23.06561,14.4069 z"
           id="path1429" />
        <path
           style="fill:#241f31;stroke:none;stroke-width:2.02185px;stroke-linecap:butt;stroke-linejoin:miter;stroke-opacity:1"
           d="m 384.31017,1007.092 22.80177,-16.97375 21.6849,16.26275 v 71.9939 l 18.02172,7.8923 v -68.6624 l -15.42911,-12.0192 22.81653,-16.44977 18.38504,14.38587 v 72.7042 l 17.04982,13.7999 -22.57936,14.0126 -19.11291,-12.7914 -14.15211,12.4827 -29.42493,-11.4334 v -72.9195 z"
           id="path1431" />
        <path
           style="fill:#241f31;stroke:none;stroke-width:2.02185px;stroke-linecap:butt;stroke-linejoin:miter;stroke-opacity:1"
           d="m 508.98359,1011.0472 23.3226,-14.79409 18.00494,7.86359 v 68.3866 l 14.34843,7.8094 -21.03913,16.6084 -18.37817,-11.218 v -65.7845 z"
           id="path1433" />
        <path
           style="fill:#241f31;stroke:none;stroke-width:2.02185px;stroke-linecap:butt;stroke-linejoin:miter;stroke-opacity:1"
           d="m 584.00229,1010.8691 21.93419,-15.32746 20.86241,13.81386 15.74452,-18.18286 20.50272,10.78476 -18.62706,20.9685 -15.48349,-7.8965 v 60.7076 l 27.00579,11.6137 -22.47342,14.6509 -28.84789,-8.3064 v -71.1692 z"
           id="path1435" />
        <path
           id="path1437"
           style="fill:#241f31;stroke:none;stroke-width:2.02185px;stroke-linecap:butt;stroke-linejoin:miter;stroke-opacity:1"
           d="m 713.47096,993.48015 -31.08203,31.08195 v 64.4819 l 20.4356,10.6501 13.76594,-12.0401 14.83609,10.6304 25.69948,-18.6982 -17.71864,-7.4833 3.08007,-67.4315 z m -10.13309,22.97485 c 0,0 14.55709,3.0762 16.15516,3.0762 1.59786,0 -1.39002,60.2998 -1.39002,60.2998 l -16.9922,-5.1176 z" />
        <path
           style="fill:#241f31;stroke:none;stroke-width:2.02185px;stroke-linecap:butt;stroke-linejoin:miter;stroke-opacity:1"
           d="m 854.3616,1004.1427 c -1.85747,-0.7149 -29.51914,-11.61266 -29.51914,-11.61266 l -37.28243,37.93666 43.12293,43.0877 -5.27014,5.7057 -27.1734,-15.0009 -21.77063,23.0862 35.87017,13.2989 39.07863,-45.9017 -38.77151,-36.0681 3.2855,-3.4965 21.99444,8.9877 z"
           id="path1442" />
        <path
           style="fill:#241f31;stroke:none;stroke-width:2.02185px;stroke-linecap:butt;stroke-linejoin:miter;stroke-opacity:1"
           d="m 951.5971,1004.1427 c -1.8574,-0.7149 -29.5191,-11.61266 -29.5191,-11.61266 l -37.28243,37.93666 43.12293,43.0877 -5.2701,5.7057 -27.17344,-15.0009 -21.77063,23.0862 35.87017,13.2989 39.0786,-45.9017 -38.77148,-36.0681 3.2855,-3.4965 21.99448,8.9877 z"
           id="path1444" />
      </g>
    </g>
    <g
       id="g4207"
       transform="translate(977.30127,1490.389)">
      <path
         id="path1461"
         style="fill:#241f31;fill-opacity:1;stroke-width:16.4554"
         d="m -221.06445,900.05359 v 0.0625 c -0.42913,0.0235 -0.85804,0.0585 -1.28711,0.0898 v 297.84181 c 0.42893,0.04 0.85752,0.085 1.28711,0.1172 v 0.078 c 0.16835,-0.011 0.33565,-0.027 0.5039,-0.039 0.16775,0.012 0.33617,0.027 0.50391,0.039 v -0.078 c 28.00081,-2.1232 55.32556,-14.294 82.04102,-35.5644 9.41018,-48.5083 13.91393,-87.3832 15.04882,-119.6407 a 43.20307,71.891757 0 0 1 -25.44336,-65.53516 43.20307,71.891757 0 0 1 11.70313,-49.20117 c -0.4312,-1.42556 -0.86686,-2.843 -1.30859,-4.24805 -27.36321,-14.45799 -54.70902,-22.36429 -82.04102,-23.85937 v -0.0625 c -0.16754,0.008 -0.33636,0.0244 -0.50391,0.0332 -0.16815,-0.009 -0.33565,-0.025 -0.5039,-0.0332 z" />
      <path
         id="path1463"
         style="fill:#000000;fill-opacity:1;stroke-width:16.4554"
         d="m -226.36719,900.05359 v 0.0625 c -27.33202,1.49508 -54.67781,9.40138 -82.04101,23.85937 -0.44173,1.40505 -0.8774,2.82249 -1.3086,4.24805 a 43.20307,71.891757 0 0 1 11.70313,49.20117 43.20307,71.891757 0 0 1 -25.44336,65.53512 c 1.13489,32.2575 5.63864,71.1324 15.04883,119.6407 26.71546,21.2703 54.04018,33.4411 82.04101,35.5644 v 0.078 c 0.16774,-0.011 0.33421,-0.027 0.50196,-0.039 0.16825,0.012 0.33751,0.027 0.50585,0.039 v -0.078 c 0.717,-0.054 1.43253,-0.1263 2.14844,-0.1953 0.28635,0.028 0.573,0.051 0.85938,0.078 V 900.2059 c -0.28646,0.0209 -0.57293,0.0373 -0.85938,0.0586 -0.7162,-0.0532 -1.43223,-0.10926 -2.14844,-0.14844 v -0.0625 c -0.16824,0.008 -0.3377,0.0243 -0.50585,0.0332 -0.16755,-0.009 -0.33442,-0.0253 -0.50196,-0.0332 z" />
      <path
         id="path1465"
         style="fill:#f5c211;stroke-width:16.6238"
         d="m -171.1758,908.38562 a 52.039886,52.039886 0 0 1 -49.3672,35.58203 52.039886,52.039886 0 0 1 -3.582,-0.12305 v 256.9688 c 1.0242,0.1053 2.0482,0.2028 3.0742,0.2812 v 0.08 c 0.1694,-0.012 0.3385,-0.027 0.5078,-0.039 0.1688,0.012 0.3371,0.028 0.5059,0.039 v -0.08 c 28.1764,-2.1534 55.6736,-14.4977 82.5566,-36.0703 9.6043,-49.9002 14.1213,-89.7316 15.1817,-122.7207 a 43.473999,72.91391 0 0 1 -25.6426,-66.49806 43.473999,72.91391 0 0 1 11.5,-49.39844 c -0.3443,-1.13744 -0.6883,-2.27574 -1.0391,-3.40039 -11.2342,-5.98273 -22.4664,-10.8412 -33.6953,-14.62109 z" />
      <path
         id="path1467"
         style="fill:#f6d32d;stroke-width:16.6238"
         d="m -275.248,908.38562 a 52.039886,52.039886 0 0 0 49.3672,35.58203 52.039886,52.039886 0 0 0 3.582,-0.12305 v 256.9688 c -1.0242,0.1053 -2.0482,0.2028 -3.0742,0.2812 v 0.08 c -0.1694,-0.012 -0.3385,-0.027 -0.5078,-0.039 -0.1688,0.012 -0.3371,0.028 -0.5059,0.039 v -0.08 c -28.1764,-2.1534 -55.6736,-14.4977 -82.5566,-36.0703 -9.6043,-49.9002 -14.1213,-89.7316 -15.1817,-122.7207 a 43.473999,72.91391 0 0 0 25.6426,-66.49806 43.473999,72.91391 0 0 0 -11.5,-49.39844 c 0.3443,-1.13744 0.6883,-2.27574 1.0391,-3.40039 11.2342,-5.98273 22.4664,-10.8412 33.6953,-14.62109 z" />
      <path
         id="path1469"
         style="fill:#e5a50a;stroke-width:16.6238"
         d="m -311.98047,1146.7934 c 0.95277,5.3557 1.95827,10.8147 3.03711,16.4199 26.883,21.5726 54.38024,29.9169 82.55664,32.0703 v 0.08 c 0.1688,-0.011 0.33706,-0.027 0.50586,-0.039 0.1693,0.012 0.33841,0.027 0.50781,0.039 v -0.08 c 0.72158,-0.055 1.44175,-0.127 2.16211,-0.1972 0.71972,0.07 1.43923,0.1422 2.16016,0.1972 v 0.08 c 0.1694,-0.012 0.33851,-0.027 0.50781,-0.039 0.1688,0.012 0.33706,0.028 0.50586,0.039 v -0.08 c 28.1764,-2.1534 55.67364,-10.4977 82.55664,-32.0703 1.07884,-5.6052 2.08434,-11.0642 3.03711,-16.4199 -27.83013,21.0206 -56.28472,29.0753 -85.43359,31.2012 v 0.08 c -0.17732,-0.011 -0.35394,-0.027 -0.53125,-0.039 -0.17784,0.012 -0.35526,0.027 -0.53321,0.039 v -0.08 c -0.45291,-0.033 -0.90508,-0.076 -1.35742,-0.1172 -0.3039,-0.028 -0.60825,-0.052 -0.91211,-0.08 -0.30452,0.028 -0.60949,0.052 -0.91406,0.08 -0.45233,0.041 -0.90448,0.084 -1.35742,0.1172 v 0.08 c -0.17795,-0.012 -0.35538,-0.027 -0.5332,-0.039 -0.17732,0.012 -0.35392,0.028 -0.53126,0.039 v -0.08 c -29.14887,-2.126 -57.60347,-10.1806 -85.43359,-31.2012 z"
         sodipodi:nodetypes="ccccccccccccccccccccccccccccc" />
      <path
         style="opacity:1;fill:#241f31;fill-opacity:1;stroke:none;stroke-width:1px;stroke-linecap:butt;stroke-linejoin:miter;stroke-opacity:1"
         d="m -137.48047,1165.0243 c 7.2702,-39.7855 14.25089,-79.7179 15.18164,-122.7207 l -9.95242,-8.7428 c -0.16086,39.0774 -8.25756,96.879 -15.45981,136.6913 z"
         id="path4180"
         sodipodi:nodetypes="ccccc" />
      <path
         id="path1471"
         style="fill:#241f31;stroke-width:16.6238"
         d="m -150.05469,916.7782 a 61.583187,88.295067 0 0 0 -16.3457,59.9082 61.583187,88.295067 0 0 0 43.16992,84.2559 c 0.42902,-6.4481 0.73944,-12.6594 0.93164,-18.6387 a 43.473999,72.91391 0 0 1 -25.64258,-66.49806 43.473999,72.91391 0 0 1 11.5,-49.39844 c -0.3443,-1.13744 -0.68826,-2.27574 -1.03906,-3.40039 -4.19199,-2.23243 -8.38285,-4.30679 -12.57422,-6.22851 z" />
      <path
         id="path1473"
         style="fill:#241f31;stroke-width:16.6238"
         d="m -275.24805,908.38562 c -4.46597,1.50334 -8.93345,3.1838 -13.40039,5.03125 a 67.466774,61.583187 0 0 0 64,46.26953 v 0.006 a 67.466774,61.583187 0 0 0 0.99805,0.008 67.466774,61.583187 0 0 0 0.0937,0 67.466774,61.583187 0 0 0 0.16602,0 67.466774,61.583187 0 0 0 0.0937,0 67.466774,61.583187 0 0 0 0.99805,-0.008 v -0.006 a 67.466774,61.583187 0 0 0 64,-46.26953 c -4.46694,-1.84745 -8.93442,-3.52791 -13.40039,-5.03125 a 52.039886,52.039886 0 0 1 -49.36719,35.58203 52.039886,52.039886 0 0 1 -1.23242,-0.0156 v -0.10742 a 52.039886,52.039886 0 0 1 -1.17383,0.0664 52.039886,52.039886 0 0 1 -1.17578,-0.0664 v 0.10742 a 52.039886,52.039886 0 0 1 -1.23242,0.0156 52.039886,52.039886 0 0 1 -49.36719,-35.58203 z" />
      <path
         id="path1475"
         style="fill:#e5a50a;fill-opacity:1;stroke:none;stroke-width:23.3025;stroke-opacity:1"
         d="m -294.54883,925.51062 a 74.736336,31.772606 0 0 1 -3.96289,1.67383 55.417729,76.750036 0 0 1 18.41406,57.1289 55.417729,76.750036 0 0 1 -42.89062,74.76175 l 0.14062,1.3183 a 55.417729,76.750036 0 0 0 48.10352,-76.08005 55.417729,76.750036 0 0 0 -19.80469,-58.80273 z" />
      <path
         style="opacity:1;fill:#241f31;fill-opacity:1;stroke:none;stroke-width:1px;stroke-linecap:butt;stroke-linejoin:miter;stroke-opacity:1"
         d="m -308.94336,1165.0243 c -7.2702,-39.7855 -14.25089,-79.7179 -15.18164,-122.7207 l 9.95242,-8.7428 c 0.16086,39.0774 8.25756,96.879 15.45981,136.6913 z"
         id="path4182"
         sodipodi:nodetypes="ccccc" />
      <path
         id="path1477"
         style="fill:#241f31;stroke-width:16.6238"
         d="m -296.64453,916.7782 a 61.583187,88.295067 0 0 1 16.3457,59.9082 61.583187,88.295067 0 0 1 -43.16992,84.2559 c -0.42902,-6.4481 -0.73944,-12.6594 -0.93164,-18.6387 a 43.473999,72.91391 0 0 0 25.64258,-66.49806 43.473999,72.91391 0 0 0 -11.5,-49.39844 c 0.3443,-1.13744 0.68826,-2.27574 1.03906,-3.40039 4.19199,-2.23243 8.38285,-4.30679 12.57422,-6.22851 z" />
      <circle
         style="fill:#f6d32d;fill-opacity:1;stroke:none;stroke-width:4.41688;stroke-opacity:1"
         id="circle1479"
         cx="-222.55176"
         cy="952.2066"
         r="3.3745961" />
      <path
         id="path1481"
         style="fill:#241f31;stroke-width:16.6238"
         d="m -311.98047,1148.6044 c 0.95277,5.3557 1.95827,10.8147 3.03711,16.4199 26.883,21.5726 54.38024,33.9169 82.55664,36.0703 v 0.08 c 0.1688,-0.011 0.33706,-0.027 0.50586,-0.039 0.1693,0.012 0.33841,0.027 0.50781,0.039 v -0.08 c 0.72158,-0.055 1.44175,-0.1271 2.16211,-0.1973 0.71972,0.07 1.43923,0.1422 2.16016,0.1973 v 0.08 c 0.1694,-0.012 0.33851,-0.027 0.50781,-0.039 0.1688,0.012 0.33706,0.028 0.50586,0.039 v -0.08 c 28.1764,-2.1534 55.67364,-14.4977 82.55664,-36.0703 1.07884,-5.6052 2.08434,-11.0642 3.03711,-16.4199 -27.83013,21.0206 -56.28472,33.0752 -85.43359,35.2011 v 0.08 c -0.17732,-0.011 -0.35394,-0.027 -0.53125,-0.039 -0.17784,0.012 -0.35526,0.027 -0.53321,0.039 v -0.08 c -0.45291,-0.033 -0.90508,-0.076 -1.35742,-0.1171 -0.3039,-0.028 -0.60825,-0.052 -0.91211,-0.08 -0.30452,0.028 -0.60949,0.052 -0.91406,0.08 -0.45233,0.041 -0.90448,0.084 -1.35742,0.1171 v 0.08 c -0.17795,-0.012 -0.35538,-0.027 -0.5332,-0.039 -0.17732,0.012 -0.35392,0.028 -0.53126,0.039 v -0.08 c -29.14887,-2.126 -57.60347,-14.1805 -85.43359,-35.2011 z" />
      <circle
         style="fill:#f6d32d;fill-opacity:1;stroke:none;stroke-width:4.41688;stroke-opacity:1"
         id="circle1483"
         cx="-222.55176"
         cy="1192.2065"
         r="3.3745961" />
      <circle
         style="fill:#f6d32d;fill-opacity:1;stroke:none;stroke-width:4.41688;stroke-opacity:1"
         id="circle1485"
         cx="-155.474"
         cy="994.88129"
         r="3.3745961" />
      <circle
         style="fill:#f6d32d;fill-opacity:1;stroke:none;stroke-width:4.41688;stroke-opacity:1"
         id="circle1487"
         cx="-291.53094"
         cy="994.88129"
         r="3.3745961" />
      <path
         id="path1489"
         style="fill:#f9f06b;fill-opacity:1;stroke:none;stroke-width:19.6016;stroke-opacity:1"
         d="m -161.79778,912.96485 a 61.749528,48.738083 0 0 1 -61.67474,46.38476 61.749528,48.738083 0 0 1 -61.67697,-46.38281 61.749528,48.738083 0 0 0 -0.0743,2.35156 61.749528,48.738083 0 0 0 61.7513,48.73829 61.749528,48.738083 0 0 0 61.74907,-48.73829 61.749528,48.738083 0 0 0 -0.0743,-2.35351 z" />
      <path
         style="fill:#241f31;fill-opacity:1;stroke:none;stroke-width:1px;stroke-linecap:butt;stroke-linejoin:miter;stroke-opacity:1"
         d="m -275,908.38562 c -11.67482,3.96603 -23.14489,8.62403 -34.21875,14.62109 l -1.03907,3.40039 5.45663,12.71903 38.04759,-15.5747 c -3.40895,-4.68403 -6.65716,-9.45845 -8.2464,-15.16581 z"
         id="path1491"
         sodipodi:nodetypes="cccccc" />
      <path
         style="fill:#241f31;fill-opacity:1;stroke:none;stroke-width:1px;stroke-linecap:butt;stroke-linejoin:miter;stroke-opacity:1"
         d="m -171.69922,908.38562 c 11.67482,3.96603 23.14489,8.62403 34.21875,14.62109 l 1.03907,3.40039 -5.45663,12.71903 -38.04759,-15.5747 c 3.40895,-4.68403 6.65716,-9.45845 8.2464,-15.16581 z"
         id="path1493"
         sodipodi:nodetypes="cccccc" />
      <path
         id="path1495"
         style="fill:#ffffff;fill-opacity:1;stroke:none;stroke-width:18.2524;stroke-opacity:1"
         d="m -169.99609,893.74304 a 53.54142,48.738083 0 0 1 -53.47657,46.38476 53.54142,48.738083 0 0 1 -53.47851,-46.38281 53.54142,48.738083 0 0 0 -0.0644,2.35156 53.54142,48.738083 0 0 0 53.54296,48.73829 53.54142,48.738083 0 0 0 53.54102,-48.73829 53.54142,48.738083 0 0 0 -0.0644,-2.35351 z" />
      <circle
         style="fill:#f6d32d;fill-opacity:1;stroke:none;stroke-width:4.41688;stroke-opacity:1"
         id="circle1497"
         cx="-222.55176"
         cy="1192.2065"
         r="3.3745961" />
      <ellipse
         style="fill:#f6d32d;fill-opacity:1;stroke:none;stroke-width:3.17504;stroke-opacity:1"
         id="ellipse1499"
         cx="-779.17114"
         cy="914.32758"
         rx="2.1686487"
         ry="2.7134423"
         transform="rotate(-25.843578)" />
      <ellipse
         style="fill:#f6d32d;fill-opacity:1;stroke:none;stroke-width:3.17504;stroke-opacity:1"
         id="ellipse1501"
         cx="-377.75293"
         cy="1108.7567"
         rx="2.1686487"
         ry="2.7134423"
         transform="matrix(-0.89998748,-0.43591574,-0.43591574,0.89998748,0,0)" />
    </g>
    <rect
       style="fill:#191919;fill-opacity:1;stroke:none;stroke-width:0.531963"
       id="rect4281"
       width="700"
       height="200"
       x="8357.2549"
       y="2588.3743" />
    <g
       id="g451"
       transform="matrix(0.47619048,0,0,0.47619048,4386.34,1355.8151)">
      <g
         id="g1247">
        <path
           id="path4303"
           style="fill:#fd7e14;fill-opacity:1;stroke:none;stroke-width:1.40209;stroke-miterlimit:4;stroke-dasharray:none;stroke-opacity:1"
           d="m 9551.1873,2698.3734 v 38.6156 h 15.2577 v -3.0224 l 6.7796,-6.7797 h 20.339 20.339 l 6.7797,6.7797 v 20.0692 a 27.118644,27.118644 0 0 1 0,0.2698 v 20.3389 l -6.7797,6.7797 h -20.339 -20.339 l -6.7796,-6.7797 v -3.7572 h -15.2577 v 54.2372 h 15.2577 v -3.0223 l 6.7796,-6.7797 h 20.339 20.339 l 6.7797,6.7797 v 20.0692 a 27.118644,27.118644 0 0 1 0,0.2698 v 20.3389 l -6.7797,6.7797 h -20.339 -20.339 l -6.7796,-6.7797 v -3.7573 h -15.2577 v 39.3506 h 82.2034 l 12.7119,-12.7119 v -174.5763 l -12.7119,-12.7118 z" />
        <path
           id="path4305"
           style="fill:#ffffff;fill-opacity:1;stroke-width:1.86014"
           d="m 9458.8145,2698.3733 -12.7119,12.7119 v 174.5763 l 12.7119,12.7119 h 82.2034 v -39.3506 -8.9545 h 35.5966 v 5.9322 l 3.3898,3.3898 h 27.1186 l 3.3899,-3.3898 v -27.1187 l -3.3899,-3.3898 h -27.1186 l -3.3898,3.3898 v 5.9322 h -35.5966 v -9.6895 -54.2372 -8.9546 h 35.5966 v 5.9322 l 3.3898,3.3898 h 27.1186 l 3.3899,-3.3898 v -27.1187 l -3.3899,-3.3898 h -27.1186 l -3.3898,3.3898 v 5.9322 h -35.5966 v -9.6894 -38.6157 z m 13.5593,16.9492 h 51.6949 v 166.1017 h -51.6949 l -9.322,-9.322 v -147.4577 z m 8.4746,11.8644 -5.9322,7.6271 v 127.1187 l 7.6271,7.6271 h 29.661 v -142.3729 z m 108.4779,19.4915 h 8.4746 l 3.3898,3.3899 v 8.4745 l -3.3898,3.3899 h -8.4746 l -3.3898,-3.3899 v -8.4745 z m 0,88.1356 h 8.4746 l 3.3898,3.3899 v 8.4745 l -3.3898,3.3899 h -8.4746 l -3.3898,-3.3899 v -8.4745 z" />
      </g>
      <g
         id="g438">
        <path
           id="path4293"
           style="fill:#ffffff;fill-opacity:1;stroke:none;stroke-width:19.6378;stroke-opacity:1"
           d="m 8512.4668,2697.8142 -10.7266,10.7265 v 29.4961 120.6739 29.496 l 10.7266,10.7266 h 29.498 80.4473 v -40.2246 h -80.4473 v -120.6719 h 80.4473 v -40.2226 h -80.4473 z" />
        <path
           id="path4295"
           style="fill:#ffffff;fill-opacity:1;stroke:none;stroke-width:22.6758;stroke-opacity:1"
           d="m 8642.6367,2697.8142 v 160.8965 29.496 l 10.7266,10.7266 h 29.4961 v -40.2226 -160.8965 z m 80.4473,0 v 160.8945 h -40.2227 v 40.2246 h 40.2227 29.498 l 10.7266,-10.7266 v -29.496 -160.8965 z" />
        <path
           id="path4297"
           style="fill:#ffffff;fill-opacity:1;stroke:none;stroke-width:19.6378;stroke-opacity:1"
           d="m 8783.5332,2697.8142 v 40.2226 120.6719 0 40.2226 h 40.2227 v -40.2226 0 -120.6719 -40.2226 z" />
        <path
           id="path4299"
           style="fill:#ffffff;fill-opacity:1;stroke:none;stroke-width:22.6758;stroke-opacity:1"
           d="m 8843.9805,2697.8142 v 160.8965 40.2226 h 40.2246 v -40.2226 0 -40.2227 h 20 l 20.2226,80.4473 h 40.2246 l -20.2246,-80.4473 h 9.4981 l 10.7265,-10.7265 v -29.4981 -40.2246 -29.4961 l -10.7265,-10.7265 h -29.4981 -40.2226 z m 40.2246,40.2226 h 40.2226 v 40.2246 h -40.2226 z" />
        <path
           id="path4301"
           style="fill:#ffffff;fill-opacity:1;stroke:none;stroke-width:22.6758;stroke-opacity:1"
           d="m 8995.6035,2697.8142 -10.7265,10.7246 v 29.498 160.8965 h 40.2226 v -160.8965 -40.2226 z m 29.4981,0 v 40.2226 h 40.2226 v 80.4492 h -40.2226 v 40.2227 h 40.2226 v 40.2246 h 40.2246 v -160.8965 -29.4961 l -10.7265,-10.7265 h -29.4981 z" />
        <path
           id="path4361"
           style="fill:#ffffff;fill-opacity:1;stroke:none;stroke-width:22.6758;stroke-opacity:1"
           inkscape:transform-center-x="-57.977254"
           inkscape:transform-center-y="58.6858"
           d="m 9277.6953,2697.8151 -10.7265,10.7246 v 29.4981 h 0.014 v 0 l 73.5567,120.6719 h -33.3418 v -40.2227 h -40.2246 v 40.2227 29.498 l 10.7265,10.7266 h 29.4981 40.2226 29.4981 l 10.7265,-10.7266 v -29.498 l -73.5566,-120.6738 h 33.332 v 40.2246 h 40.2246 v -40.2246 -29.4981 l -10.7265,-10.7246 h -29.4981 -40.2226 z" />
        <path
           id="path4363"
           style="fill:#ffffff;fill-opacity:1;stroke:none;stroke-width:22.6758;stroke-opacity:1"
           inkscape:transform-center-x="-57.977254"
           inkscape:transform-center-y="58.6858"
           d="m 9136.7988,2697.8151 -10.7265,10.7246 v 29.4981 h 0.014 v 0 l 73.5567,120.6719 h -33.3418 v -40.2227 h -40.2246 v 40.2227 29.498 l 10.7265,10.7266 h 29.4981 40.2226 29.4981 l 10.7265,-10.7266 v -29.498 l -73.5566,-120.6738 h 33.332 v 40.2246 h 40.2246 v -40.2246 -29.4981 l -10.7265,-10.7246 h -29.4981 -40.2226 z" />
      </g>
    </g>
    <g
       id="g995">
      <rect
         style="fill:#ffffff;fill-opacity:1;stroke:none;stroke-width:0.531963"
         id="rect79"
         width="700"
         height="200"
         x="8357.2549"
         y="2868.3743" />
      <g
         id="g981">
        <path
           id="path81"
           style="fill:#fd7e14;fill-opacity:1;stroke:none;stroke-width:0.667662;stroke-miterlimit:4;stroke-dasharray:none;stroke-opacity:1"
           d="m 8934.5245,2920.7548 v 18.3884 h 7.2655 v -1.4392 l 3.2284,-3.2285 h 9.6853 9.6852 l 3.2284,3.2285 v 9.5567 a 12.91364,12.91364 0 0 1 0,0.1285 v 9.6852 l -3.2284,3.2284 h -9.6852 -9.6853 l -3.2284,-3.2284 v -1.7891 h -7.2655 v 25.8272 h 7.2655 v -1.4392 l 3.2284,-3.2284 h 9.6853 9.6852 l 3.2284,3.2284 v 9.5568 a 12.91364,12.91364 0 0 1 0,0.1284 v 9.6852 l -3.2284,3.2285 h -9.6852 -9.6853 l -3.2284,-3.2285 v -1.7892 h -7.2655 v 18.7384 h 39.1444 l 6.0533,-6.0533 v -83.1315 l -6.0533,-6.0533 z" />
        <path
           id="path83"
           style="fill:#191919;fill-opacity:1;stroke-width:0.885781"
           d="m 8890.5374,2920.7548 -6.0533,6.0533 v 83.1315 l 6.0533,6.0533 h 39.1445 v -18.7384 -4.264 h 16.9508 v 2.8248 l 1.6141,1.6142 h 12.9137 l 1.6142,-1.6142 v -12.9136 l -1.6142,-1.6142 h -12.9137 l -1.6141,1.6142 v 2.8248 h -16.9508 v -4.614 -25.8272 -4.2641 h 16.9508 v 2.8248 l 1.6141,1.6142 h 12.9137 l 1.6142,-1.6142 v -12.9137 l -1.6142,-1.6141 h -12.9137 l -1.6141,1.6141 v 2.8249 h -16.9508 v -4.614 -18.3884 z m 6.4568,8.071 h 24.6166 v 79.0961 h -24.6166 l -4.439,-4.4391 v -70.2179 z m 4.0356,5.6497 -2.8249,3.632 v 60.5327 l 3.6319,3.632 h 14.1243 v -67.7967 z m 51.6561,9.2817 h 4.0355 l 1.6142,1.6142 v 4.0355 l -1.6142,1.6143 h -4.0355 l -1.6142,-1.6143 v -4.0355 z m 0,41.9693 h 4.0355 l 1.6142,1.6143 v 4.0355 l -1.6142,1.6142 h -4.0355 l -1.6142,-1.6142 v -4.0355 z" />
      </g>
      <g
         id="g977">
        <path
           id="path87"
           style="fill:#191919;fill-opacity:1;stroke:none;stroke-width:9.35133;stroke-opacity:1"
           d="m 8439.8957,2920.4885 -5.108,5.1079 v 14.0458 57.4637 14.0457 l 5.108,5.1079 h 14.0466 38.3083 v -19.1545 h -38.3083 v -57.4628 h 38.3083 v -19.1537 h -38.3083 z" />
        <path
           id="path89"
           style="fill:#191919;fill-opacity:1;stroke:none;stroke-width:10.798;stroke-opacity:1"
           d="m 8501.8813,2920.4885 v 76.6174 14.0457 l 5.1079,5.1079 h 14.0458 v -19.1536 -76.6174 z m 38.3083,0 v 76.6165 h -19.1537 v 19.1545 h 19.1537 14.0466 l 5.1079,-5.1079 v -14.0457 -76.6174 z" />
        <path
           id="path91"
           style="fill:#191919;fill-opacity:1;stroke:none;stroke-width:9.35133;stroke-opacity:1"
           d="m 8568.9749,2920.4885 v 19.1537 57.4628 0 19.1536 h 19.1537 v -19.1536 0 -57.4628 -19.1537 z" />
        <path
           id="path93"
           style="fill:#191919;fill-opacity:1;stroke:none;stroke-width:10.798;stroke-opacity:1"
           d="m 8597.7593,2920.4885 v 76.6174 19.1536 h 19.1546 v -19.1536 0 -19.1536 h 9.5238 l 9.6298,38.3082 h 19.1546 l -9.6308,-38.3082 h 4.5229 l 5.1079,-5.1079 v -14.0467 -19.1546 -14.0458 l -5.1079,-5.1078 h -14.0467 -19.1536 z m 19.1546,19.1537 h 19.1536 v 19.1545 h -19.1536 z" />
        <path
           id="path95"
           style="fill:#191919;fill-opacity:1;stroke:none;stroke-width:10.798;stroke-opacity:1"
           d="m 8669.9607,2920.4885 -5.1078,5.107 v 14.0467 76.6173 h 19.1536 v -76.6173 -19.1537 z m 14.0468,0 v 19.1537 h 19.1536 v 38.3091 h -19.1536 v 19.1537 h 19.1536 v 19.1545 h 19.1546 v -76.6173 -14.0458 l -5.1079,-5.1079 h -14.0467 z" />
        <path
           id="path97"
           style="fill:#191919;fill-opacity:1;stroke:none;stroke-width:10.798;stroke-opacity:1"
           inkscape:transform-center-x="-57.977254"
           inkscape:transform-center-y="58.6858"
           d="m 8804.2902,2920.489 -5.1079,5.1069 v 14.0467 h 0.01 v 0 l 35.027,57.4628 h -15.8771 v -19.1536 h -19.1545 v 19.1536 14.0467 l 5.1078,5.1079 h 14.0467 19.1537 14.0467 l 5.1078,-5.1079 v -14.0467 l -35.0269,-57.4637 h 15.8724 v 19.1546 h 19.1545 v -19.1546 -14.0467 l -5.1078,-5.1069 h -14.0467 -19.1537 z" />
        <path
           id="path99"
           style="fill:#191919;fill-opacity:1;stroke:none;stroke-width:10.798;stroke-opacity:1"
           inkscape:transform-center-x="-57.977254"
           inkscape:transform-center-y="58.6858"
           d="m 8737.1966,2920.489 -5.1079,5.1069 v 14.0467 h 0.01 v 0 l 35.027,57.4628 h -15.877 v -19.1536 h -19.1546 v 19.1536 14.0467 l 5.1079,5.1079 h 14.0467 19.1536 14.0467 l 5.1079,-5.1079 v -14.0467 l -35.027,-57.4637 h 15.8724 v 19.1546 h 19.1546 v -19.1546 -14.0467 l -5.1079,-5.1069 h -14.0467 -19.1536 z" />
      </g>
    </g>
  </g>
</svg>
