<?xml version="1.0" encoding="UTF-8" standalone="no"?>
<!-- Created with Inkscape (http://www.inkscape.org/) -->

<svg
   width="800.00006"
   height="400"
   viewBox="0 0 211.66668 105.83334"
   version="1.1"
   id="svg4715"
   inkscape:version="1.1.1 (3bf5ae0d25, 2021-09-20)"
   sodipodi:docname="Guix-Days-Variant.svg"
   inkscape:export-filename="Guix-Days-Variant.png"
   inkscape:export-xdpi="95.999992"
   inkscape:export-ydpi="95.999992"
   xmlns:inkscape="http://www.inkscape.org/namespaces/inkscape"
   xmlns:sodipodi="http://sodipodi.sourceforge.net/DTD/sodipodi-0.dtd"
   xmlns:xlink="http://www.w3.org/1999/xlink"
   xmlns="http://www.w3.org/2000/svg"
   xmlns:svg="http://www.w3.org/2000/svg"
   xmlns:rdf="http://www.w3.org/1999/02/22-rdf-syntax-ns#"
   xmlns:cc="http://creativecommons.org/ns#"
   xmlns:dc="http://purl.org/dc/elements/1.1/">
  <title
     id="title952">Guix Days 2022</title>
  <defs
     id="defs4709">
    <pattern
       inkscape:collect="always"
       xlink:href="#Polkadots-small"
       id="pattern49707"
       patternTransform="matrix(10,0,0,6.8406905,4.000554e-7,-2324.0092)" />
    <pattern
       inkscape:collect="always"
       patternUnits="userSpaceOnUse"
       width="10"
       height="10"
       patternTransform="translate(0,0) scale(10,10)"
       id="Polkadots-small"
       inkscape:stockid="Polka dots, small"
       inkscape:isstock="true">
      <circle
         style="fill:black;stroke:none"
         cx="2.567"
         cy="0.810"
         r="0.05"
         id="circle47842" />
      <circle
         style="fill:black;stroke:none"
         cx="3.048"
         cy="2.33"
         r="0.05"
         id="circle47844" />
      <circle
         style="fill:black;stroke:none"
         cx="4.418"
         cy="2.415"
         r="0.05"
         id="circle47846" />
      <circle
         style="fill:black;stroke:none"
         cx="1.844"
         cy="3.029"
         r="0.05"
         id="circle47848" />
      <circle
         style="fill:black;stroke:none"
         cx="6.08"
         cy="1.363"
         r="0.05"
         id="circle47850" />
      <circle
         style="fill:black;stroke:none"
         cx="5.819"
         cy="4.413"
         r="0.05"
         id="circle47852" />
      <circle
         style="fill:black;stroke:none"
         cx="4.305"
         cy="4.048"
         r="0.05"
         id="circle47854" />
      <circle
         style="fill:black;stroke:none"
         cx="5.541"
         cy="3.045"
         r="0.05"
         id="circle47856" />
      <circle
         style="fill:black;stroke:none"
         cx="4.785"
         cy="5.527"
         r="0.05"
         id="circle47858" />
      <circle
         style="fill:black;stroke:none"
         cx="2.667"
         cy="5.184"
         r="0.05"
         id="circle47860" />
      <circle
         style="fill:black;stroke:none"
         cx="7.965"
         cy="1.448"
         r="0.05"
         id="circle47862" />
      <circle
         style="fill:black;stroke:none"
         cx="7.047"
         cy="5.049"
         r="0.05"
         id="circle47864" />
      <circle
         style="fill:black;stroke:none"
         cx="4.340"
         cy="0.895"
         r="0.05"
         id="circle47866" />
      <circle
         style="fill:black;stroke:none"
         cx="7.125"
         cy="0.340"
         r="0.05"
         id="circle47868" />
      <circle
         style="fill:black;stroke:none"
         cx="9.550"
         cy="1.049"
         r="0.05"
         id="circle47870" />
      <circle
         style="fill:black;stroke:none"
         cx="7.006"
         cy="2.689"
         r="0.05"
         id="circle47872" />
      <circle
         style="fill:black;stroke:none"
         cx="8.909"
         cy="2.689"
         r="0.05"
         id="circle47874" />
      <circle
         style="fill:black;stroke:none"
         cx="9.315"
         cy="4.407"
         r="0.05"
         id="circle47876" />
      <circle
         style="fill:black;stroke:none"
         cx="7.820"
         cy="3.870"
         r="0.05"
         id="circle47878" />
      <circle
         style="fill:black;stroke:none"
         cx="8.270"
         cy="5.948"
         r="0.05"
         id="circle47880" />
      <circle
         style="fill:black;stroke:none"
         cx="7.973"
         cy="7.428"
         r="0.05"
         id="circle47882" />
      <circle
         style="fill:black;stroke:none"
         cx="9.342"
         cy="8.072"
         r="0.05"
         id="circle47884" />
      <circle
         style="fill:black;stroke:none"
         cx="8.206"
         cy="9.315"
         r="0.05"
         id="circle47886" />
      <circle
         style="fill:black;stroke:none"
         cx="9.682"
         cy="9.475"
         r="0.05"
         id="circle47888" />
      <circle
         style="fill:black;stroke:none"
         cx="9.688"
         cy="6.186"
         r="0.05"
         id="circle47890" />
      <circle
         style="fill:black;stroke:none"
         cx="3.379"
         cy="6.296"
         r="0.05"
         id="circle47892" />
      <circle
         style="fill:black;stroke:none"
         cx="2.871"
         cy="8.204"
         r="0.05"
         id="circle47894" />
      <circle
         style="fill:black;stroke:none"
         cx="4.59"
         cy="8.719"
         r="0.05"
         id="circle47896" />
      <circle
         style="fill:black;stroke:none"
         cx="3.181"
         cy="9.671"
         r="0.05"
         id="circle47898" />
      <circle
         style="fill:black;stroke:none"
         cx="5.734"
         cy="7.315"
         r="0.05"
         id="circle47900" />
      <circle
         style="fill:black;stroke:none"
         cx="6.707"
         cy="6.513"
         r="0.05"
         id="circle47902" />
      <circle
         style="fill:black;stroke:none"
         cx="5.730"
         cy="9.670"
         r="0.05"
         id="circle47904" />
      <circle
         style="fill:black;stroke:none"
         cx="6.535"
         cy="8.373"
         r="0.05"
         id="circle47906" />
      <circle
         style="fill:black;stroke:none"
         cx="4.37"
         cy="7.154"
         r="0.05"
         id="circle47908" />
      <circle
         style="fill:black;stroke:none"
         cx="0.622"
         cy="7.25"
         r="0.05"
         id="circle47910" />
      <circle
         style="fill:black;stroke:none"
         cx="0.831"
         cy="5.679"
         r="0.05"
         id="circle47912" />
      <circle
         style="fill:black;stroke:none"
         cx="1.257"
         cy="8.519"
         r="0.05"
         id="circle47914" />
      <circle
         style="fill:black;stroke:none"
         cx="1.989"
         cy="6.877"
         r="0.05"
         id="circle47916" />
      <circle
         style="fill:black;stroke:none"
         cx="0.374"
         cy="3.181"
         r="0.05"
         id="circle47918" />
      <circle
         style="fill:black;stroke:none"
         cx="1.166"
         cy="1.664"
         r="0.05"
         id="circle47920" />
      <circle
         style="fill:black;stroke:none"
         cx="1.151"
         cy="0.093"
         r="0.05"
         id="circle47922" />
      <circle
         style="fill:black;stroke:none"
         cx="1.151"
         cy="10.093"
         r="0.05"
         id="circle47924" />
      <circle
         style="fill:black;stroke:none"
         cx="1.302"
         cy="4.451"
         r="0.05"
         id="circle47926" />
      <circle
         style="fill:black;stroke:none"
         cx="3.047"
         cy="3.763"
         r="0.05"
         id="circle47928" />
    </pattern>
    <linearGradient
       inkscape:collect="always"
       id="linearGradient46007">
      <stop
         style="stop-color:#204a87;stop-opacity:0"
         offset="0"
         id="stop46003" />
      <stop
         style="stop-color:#204a87;stop-opacity:0.97542411"
         offset="0.06743789"
         id="stop46105" />
      <stop
         style="stop-color:#204a87;stop-opacity:1"
         offset="0.93869704"
         id="stop46107" />
      <stop
         style="stop-color:#204a87;stop-opacity:0;"
         offset="1"
         id="stop46005" />
    </linearGradient>
    <linearGradient
       inkscape:collect="always"
       id="linearGradient25584">
      <stop
         style="stop-color:#447cd3;stop-opacity:1;"
         offset="0"
         id="stop25580" />
      <stop
         style="stop-color:#3f79d3;stop-opacity:1"
         offset="1"
         id="stop25582" />
    </linearGradient>
    <linearGradient
       inkscape:collect="always"
       xlink:href="#linearGradient4702-3"
       id="linearGradient3841"
       gradientUnits="userSpaceOnUse"
       gradientTransform="matrix(1.4536642,0,0,1.4536642,455.83528,1136.5453)"
       x1="142.96875"
       y1="63.65625"
       x2="176.60477"
       y2="70.667412" />
    <linearGradient
       id="linearGradient4702-3">
      <stop
         style="stop-color:#e34646;stop-opacity:1;"
         offset="0"
         id="stop4704-1" />
      <stop
         style="stop-color:#ffbf2d;stop-opacity:1;"
         offset="1"
         id="stop4706-8" />
    </linearGradient>
    <linearGradient
       inkscape:collect="always"
       xlink:href="#linearGradient4696-5"
       id="linearGradient3845"
       gradientUnits="userSpaceOnUse"
       gradientTransform="matrix(-0.81400176,0,0,0.81400176,685.162,507.58301)"
       x1="108.08774"
       y1="1025.709"
       x2="80.655251"
       y2="1043.709" />
    <linearGradient
       id="linearGradient4696-5">
      <stop
         style="stop-color:#ffb638;stop-opacity:1;"
         offset="0"
         id="stop4698-6" />
      <stop
         style="stop-color:#f0ae26;stop-opacity:1;"
         offset="1"
         id="stop4700-2" />
    </linearGradient>
    <linearGradient
       inkscape:collect="always"
       xlink:href="#linearGradient4702-3"
       id="linearGradient3847"
       gradientUnits="userSpaceOnUse"
       gradientTransform="matrix(-1.4536642,0,0,1.4536642,751.06529,1136.5448)"
       x1="142.96875"
       y1="63.65625"
       x2="177.04297"
       y2="69.791016" />
    <linearGradient
       inkscape:collect="always"
       xlink:href="#linearGradient4702-3"
       id="linearGradient900"
       gradientUnits="userSpaceOnUse"
       gradientTransform="matrix(1.4536642,0,0,1.4536642,455.78829,-102.50473)"
       x1="113.5146"
       y1="1004.8033"
       x2="78.000107"
       y2="922.07178" />
    <filter
       inkscape:collect="always"
       style="color-interpolation-filters:sRGB"
       id="filter23778"
       x="-0.016855038"
       y="-0.06782132"
       width="1.0337101"
       height="1.1356426">
      <feGaussianBlur
         inkscape:collect="always"
         stdDeviation="5.0368689"
         id="feGaussianBlur23780" />
    </filter>
    <radialGradient
       inkscape:collect="always"
       xlink:href="#linearGradient25584"
       id="radialGradient25586"
       cx="834.47012"
       cy="1342.4764"
       fx="834.47012"
       fy="1342.4764"
       r="400.00003"
       gradientTransform="matrix(1,0,0,0.49999996,0,671.23827)"
       gradientUnits="userSpaceOnUse" />
    <linearGradient
       inkscape:collect="always"
       xlink:href="#linearGradient46007"
       id="linearGradient46009"
       x1="456.86661"
       y1="1380.9116"
       x2="1212.0736"
       y2="1380.9116"
       gradientUnits="userSpaceOnUse"
       gradientTransform="translate(0,-2.13482e-4)" />
  </defs>
  <sodipodi:namedview
     id="base"
     pagecolor="#ffffff"
     bordercolor="#666666"
     borderopacity="1.0"
     inkscape:pageopacity="1"
     inkscape:pageshadow="2"
     inkscape:zoom="1"
     inkscape:cx="431"
     inkscape:cy="224"
     inkscape:document-units="px"
     inkscape:current-layer="g3829"
     showgrid="false"
     fit-margin-top="0"
     fit-margin-left="0"
     fit-margin-right="0"
     fit-margin-bottom="0"
     inkscape:window-width="1920"
     inkscape:window-height="1011"
     inkscape:window-x="0"
     inkscape:window-y="32"
     inkscape:window-maximized="1"
     showguides="false"
     inkscape:pagecheckerboard="0"
     inkscape:showpageshadow="false"
     inkscape:snap-page="true"
     units="px"
     inkscape:snap-bbox="true"
     inkscape:snap-global="true" />
  <metadata
     id="metadata4712">
    <rdf:RDF>
      <cc:Work
         rdf:about="">
        <dc:format>image/svg+xml</dc:format>
        <dc:type
           rdf:resource="http://purl.org/dc/dcmitype/StillImage" />
        <dc:title>Guix Days 2022</dc:title>
        <dc:date>2022-01-10</dc:date>
        <dc:creator>
          <cc:Agent>
            <dc:title>Luis Felipe López Acevedo</dc:title>
          </cc:Agent>
        </dc:creator>
        <dc:language>en</dc:language>
        <cc:license
           rdf:resource="http://creativecommons.org/licenses/by-sa/4.0/" />
      </cc:Work>
      <cc:License
         rdf:about="http://creativecommons.org/licenses/by-sa/4.0/">
        <cc:permits
           rdf:resource="http://creativecommons.org/ns#Reproduction" />
        <cc:permits
           rdf:resource="http://creativecommons.org/ns#Distribution" />
        <cc:requires
           rdf:resource="http://creativecommons.org/ns#Notice" />
        <cc:requires
           rdf:resource="http://creativecommons.org/ns#Attribution" />
        <cc:permits
           rdf:resource="http://creativecommons.org/ns#DerivativeWorks" />
        <cc:requires
           rdf:resource="http://creativecommons.org/ns#ShareAlike" />
      </cc:License>
    </rdf:RDF>
  </metadata>
  <g
     inkscape:label="Tavolo 1"
     inkscape:groupmode="layer"
     id="layer1"
     transform="translate(-49.14445,-126.317)">
    <g
       id="g3829"
       transform="matrix(0.26458333,0,0,0.26458333,-65.809094,-175.96322)">
      <rect
         style="fill:url(#radialGradient25586);fill-opacity:1;stroke:none;stroke-width:2.00001;stroke-dasharray:4.00003, 4.00003"
         id="rect871"
         width="800.00006"
         height="400"
         x="434.47009"
         y="1142.4764" />
      <rect
         style="fill:url(#pattern49707);fill-opacity:1;stroke:none;stroke-width:2.00001;stroke-dasharray:4.00003, 4.00003"
         id="rect47742"
         width="800.00006"
         height="162.48006"
         x="434.47009"
         y="-1542.4764"
         transform="scale(1,-1)" />
      <path
         id="rect26285"
         style="fill:#ffffff;fill-opacity:1;stroke:none;stroke-width:2.00001;stroke-dasharray:4.00002, 4.00002;stroke-opacity:1"
         d="m 484.48186,1365.0873 v 3.8398 h 5 v -3.8398 z m 10,0 v 3.8398 h 5 v -3.8398 z m 10,0 v 3.8398 h 5 v -3.8398 z m 10,0 v 3.8398 h 5 v -3.8398 z m 10,0 v 3.8398 h 5 v -3.8398 z m 10,0 v 3.8398 h 5 v -3.8398 z m 10,0 v 3.8398 h 5 v -3.8398 z m 10,0 v 3.8398 h 5 v -3.8398 z m 10,0 v 3.8398 h 5 v -3.8398 z m 10,0 v 3.8398 h 5 v -3.8398 z m 10,0 v 3.8398 h 5 v -3.8398 z m 10,0 v 3.8398 h 5 v -3.8398 z m 10,0 v 3.8398 h 5 v -3.8398 z m 10,0 v 3.8398 h 5 v -3.8398 z m 10,0 v 3.8398 h 5 v -3.8398 z m 10,0 v 3.8398 h 5 v -3.8398 z m 10,0 v 3.8398 h 5 v -3.8398 z m 10,0 v 3.8398 h 5 v -3.8398 z m 10,0 v 3.8398 h 5 v -3.8398 z m 10,0 v 3.8398 h 5 v -3.8398 z m 10,0 v 3.8398 h 5 v -3.8398 z m 10,0 v 3.8398 h 5 v -3.8398 z m 10,0 v 3.8398 h 5 v -3.8398 z m 10,0 v 3.8398 h 5 v -3.8398 z m 10,0 v 3.8398 h 5 v -3.8398 z m 10,0 v 3.8398 h 5 v -3.8398 z m 10,0 v 3.8398 h 5 v -3.8398 z m 10,0 v 3.8398 h 5 v -3.8398 z m 10,0 v 3.8398 h 5 v -3.8398 z m 10,0 v 3.8398 h 5 v -3.8398 z m 10,0 v 3.8398 h 5 v -3.8398 z m 10,0 v 3.8398 h 5 v -3.8398 z m 10,0 v 3.8398 h 5 v -3.8398 z m 10,0 v 3.8398 h 5 v -3.8398 z m 10,0 v 3.8398 h 5 v -3.8398 z m 10,0 v 3.8398 h 5 v -3.8398 z m 10,0 v 3.8398 h 5 v -3.8398 z m 10,0 v 3.8398 h 5 v -3.8398 z m 10,0 v 3.8398 h 5 v -3.8398 z m 10,0 v 3.8398 h 5 v -3.8398 z m 10,0 v 3.8398 h 5 v -3.8398 z m 10,0 v 3.8398 h 5 v -3.8398 z m 10,0 v 3.8398 h 5 v -3.8398 z m 10,0 v 3.8398 h 5 v -3.8398 z m 10,0 v 3.8398 h 5 v -3.8398 z m 10,0 v 3.8398 h 5 v -3.8398 z m 10,0 v 3.8398 h 5 v -3.8398 z m 10,0 v 3.8398 h 5 v -3.8398 z m 10,0 v 3.8398 h 5 v -3.8398 z m 10,0 v 3.8398 h 5 v -3.8398 z m 10,0 v 3.8398 h 5 v -3.8398 z m 10,0 v 3.8398 h 5 v -3.8398 z m 9.99994,0 v 3.8398 h 5 v -3.8398 z m 10,0 v 3.8398 h 5 v -3.8398 z m 10,0 v 3.8398 h 5 v -3.8398 z m 10,0 v 3.8398 h 5 v -3.8398 z m 10,0 v 3.8398 h 5 v -3.8398 z m 10,0 v 3.8398 h 5 v -3.8398 z m 10,0 v 3.8398 h 5 v -3.8398 z m 10,0 v 3.8398 h 5 v -3.8398 z m 10,0 v 3.8398 h 5 v -3.8398 z m 10,0 v 3.8398 h 5 v -3.8398 z m 10,0 v 3.8398 h 5 v -3.8398 z m 10,0 v 3.8398 h 5 v -3.8398 z m 10,0 v 3.8398 h 5 v -3.8398 z m 10,0 v 3.8398 h 5 v -3.8398 z m 10,0 v 3.8398 h 5 v -3.8398 z m 10,0 v 3.8398 h 5 v -3.8398 z m 10,0 v 3.8398 h 5 v -3.8398 z m 10,0 v 3.8398 h 5 v -3.8398 z m 10,0 v 3.8398 h 5 v -3.8398 z m -699.99994,5.8398 v 9.1602 l 2.5,-4 2.5,4 v -9.1602 z m 10,0 v 9.1602 l 2.5,-4 2.5,4 v -9.1602 z m 10,0 v 9.1602 l 2.5,-4 2.5,4 v -9.1602 z m 10,0 v 9.1602 l 2.5,-4 2.5,4 v -9.1602 z m 10,0 v 9.1602 l 2.5,-4 2.5,4 v -9.1602 z m 10,0 v 9.1602 l 2.5,-4 2.5,4 v -9.1602 z m 10,0 v 9.1602 l 2.5,-4 2.5,4 v -9.1602 z m 10,0 v 9.1602 l 2.5,-4 2.5,4 v -9.1602 z m 10,0 v 9.1602 l 2.5,-4 2.5,4 v -9.1602 z m 10,0 v 9.1602 l 2.5,-4 2.5,4 v -9.1602 z m 10,0 v 9.1602 l 2.5,-4 2.5,4 v -9.1602 z m 10,0 v 9.1602 l 2.5,-4 2.5,4 v -9.1602 z m 10,0 v 9.1602 l 2.5,-4 2.5,4 v -9.1602 z m 10,0 v 9.1602 l 2.5,-4 2.5,4 v -9.1602 z m 10,0 v 9.1602 l 2.5,-4 2.5,4 v -9.1602 z m 10,0 v 9.1602 l 2.5,-4 2.5,4 v -9.1602 z m 10,0 v 9.1602 l 2.5,-4 2.5,4 v -9.1602 z m 10,0 v 9.1602 l 2.5,-4 2.5,4 v -9.1602 z m 10,0 v 9.1602 l 2.5,-4 2.5,4 v -9.1602 z m 10,0 v 9.1602 l 2.5,-4 2.5,4 v -9.1602 z m 10,0 v 9.1602 l 2.5,-4 2.5,4 v -9.1602 z m 10,0 v 9.1602 l 2.5,-4 2.5,4 v -9.1602 z m 10,0 v 9.1602 l 2.5,-4 2.5,4 v -9.1602 z m 10,0 v 9.1602 l 2.5,-4 2.5,4 v -9.1602 z m 10,0 v 9.1602 l 2.5,-4 2.5,4 v -9.1602 z m 10,0 v 9.1602 l 2.5,-4 2.5,4 v -9.1602 z m 10,0 v 9.1602 l 2.5,-4 2.5,4 v -9.1602 z m 10,0 v 9.1602 l 2.5,-4 2.5,4 v -9.1602 z m 10,0 v 9.1602 l 2.5,-4 2.5,4 v -9.1602 z m 10,0 v 9.1602 l 2.5,-4 2.5,4 v -9.1602 z m 10,0 v 9.1602 l 2.5,-4 2.5,4 v -9.1602 z m 10,0 v 9.1602 l 2.5,-4 2.5,4 v -9.1602 z m 10,0 v 9.1602 l 2.5,-4 2.5,4 v -9.1602 z m 10,0 v 9.1602 l 2.5,-4 2.5,4 v -9.1602 z m 10,0 v 9.1602 l 2.5,-4 2.5,4 v -9.1602 z m 10,0 v 9.1602 l 2.5,-4 2.5,4 v -9.1602 z m 10,0 v 9.1602 l 2.5,-4 2.5,4 v -9.1602 z m 10,0 v 9.1602 l 2.5,-4 2.5,4 v -9.1602 z m 10,0 v 9.1602 l 2.5,-4 2.5,4 v -9.1602 z m 10,0 v 9.1602 l 2.5,-4 2.5,4 v -9.1602 z m 10,0 v 9.1602 l 2.5,-4 2.5,4 v -9.1602 z m 10,0 v 9.1602 l 2.5,-4 2.5,4 v -9.1602 z m 10,0 v 9.1602 l 2.5,-4 2.5,4 v -9.1602 z m 10,0 v 9.1602 l 2.5,-4 2.5,4 v -9.1602 z m 10,0 v 9.1602 l 2.5,-4 2.5,4 v -9.1602 z m 10,0 v 9.1602 l 2.5,-4 2.5,4 v -9.1602 z m 10,0 v 9.1602 l 2.5,-4 2.5,4 v -9.1602 z m 10,0 v 9.1602 l 2.5,-4 2.5,4 v -9.1602 z m 10,0 v 9.1602 l 2.5,-4 2.5,4 v -9.1602 z m 10,0 v 9.1602 l 2.5,-4 2.5,4 v -9.1602 z m 10,0 v 9.1602 l 2.5,-4 2.5,4 v -9.1602 z m 10,0 v 9.1602 l 2.5,-4 2.5,4 v -9.1602 z m 9.99994,0 v 9.1602 l 2.5,-4 2.5,4 v -9.1602 z m 10,0 v 9.1602 l 2.5,-4 2.5,4 v -9.1602 z m 10,0 v 9.1602 l 2.5,-4 2.5,4 v -9.1602 z m 10,0 v 9.1602 l 2.5,-4 2.5,4 v -9.1602 z m 10,0 v 9.1602 l 2.5,-4 2.5,4 v -9.1602 z m 10,0 v 9.1602 l 2.5,-4 2.5,4 v -9.1602 z m 10,0 v 9.1602 l 2.5,-4 2.5,4 v -9.1602 z m 10,0 v 9.1602 l 2.5,-4 2.5,4 v -9.1602 z m 10,0 v 9.1602 l 2.5,-4 2.5,4 v -9.1602 z m 10,0 v 9.1602 l 2.5,-4 2.5,4 v -9.1602 z m 10,0 v 9.1602 l 2.5,-4 2.5,4 v -9.1602 z m 10,0 v 9.1602 l 2.5,-4 2.5,4 v -9.1602 z m 10,0 v 9.1602 l 2.5,-4 2.5,4 v -9.1602 z m 10,0 v 9.1602 l 2.5,-4 2.5,4 v -9.1602 z m 10,0 v 9.1602 l 2.5,-4 2.5,4 v -9.1602 z m 10,0 v 9.1602 l 2.5,-4 2.5,4 v -9.1602 z m 10,0 v 9.1602 l 2.5,-4 2.5,4 v -9.1602 z m 10,0 v 9.1602 l 2.5,-4 2.5,4 v -9.1602 z m 10,0 v 9.1602 l 2.5,-4 2.5,4 v -9.1602 z"
         sodipodi:nodetypes="ccccccccccccccccccccccccccccccccccccccccccccccccccccccccccccccccccccccccccccccccccccccccccccccccccccccccccccccccccccccccccccccccccccccccccccccccccccccccccccccccccccccccccccccccccccccccccccccccccccccccccccccccccccccccccccccccccccccccccccccccccccccccccccccccccccccccccccccccccccccccccccccccccccccccccccccccccccccccccccccccccccccccccccccccccccccccccccccccccccccccccccccccccccccccccccccccccccccccccccccccccccccccccccccccccccccccccccccccccccccccccccccccccccccccccccccccccccccccccccccccccccccccccccccccccccccccccccccccccccccccccccccccccccccccccccccccccccccccccccccccccccccccccccccccccccccccccccccccccccccccccccccccccccccccccccccccccccccccccccccccccccccccccccccccccccccccccccccccccccccccccccccccccccccccccccccccccccccccccccccccccccccccccccccccccccccccccccccccccccccccccccccccccccccccccccc" />
      <path
         id="path42101"
         style="fill:#ffbf2d;fill-opacity:1;stroke:none;stroke-width:2.00001;stroke-dasharray:4.00002, 4.00002;stroke-opacity:1"
         d="m 484.48186,1365.0873 v 3.8398 h 5 v -3.8398 z m 10,0 v 3.8398 h 5 v -3.8398 z m 10,0 v 3.8398 h 5 v -3.8398 z m 10,0 v 3.8398 h 5 v -3.8398 z m 10,0 v 3.8398 h 5 v -3.8398 z m 10,0 v 3.8398 h 5 v -3.8398 z m 10,0 v 3.8398 h 5 v -3.8398 z m 10,0 v 3.8398 h 5 v -3.8398 z m 10,0 v 3.8398 h 5 v -3.8398 z m 10,0 v 3.8398 h 5 v -3.8398 z m 10,0 v 3.8398 h 5 v -3.8398 z m 10,0 v 3.8398 h 5 v -3.8398 z m 10,0 v 3.8398 h 5 v -3.8398 z m 10,0 v 3.8398 h 5 v -3.8398 z m 10,0 v 3.8398 h 5 v -3.8398 z m 10,0 v 3.8398 h 5 v -3.8398 z m 10,0 v 3.8398 h 5 v -3.8398 z m 10,0 v 3.8398 h 5 v -3.8398 z m 10,0 v 3.8398 h 5 v -3.8398 z m 10,0 v 3.8398 h 5 v -3.8398 z m 10,0 v 3.8398 h 5 v -3.8398 z m 10,0 v 3.8398 h 5 v -3.8398 z m 10,0 v 3.8398 h 5 v -3.8398 z m 10,0 v 3.8398 h 5 v -3.8398 z m 10,0 v 3.8398 h 5 v -3.8398 z m 10,0 v 3.8398 h 5 v -3.8398 z m 10,0 v 3.8398 h 5 v -3.8398 z m 10,0 v 3.8398 h 5 v -3.8398 z m 10,0 v 3.8398 h 5 v -3.8398 z m 10,0 v 3.8398 h 5 v -3.8398 z m 10,0 v 3.8398 h 5 v -3.8398 z m 10,0 v 3.8398 h 5 v -3.8398 z m 10,0 v 3.8398 h 5 v -3.8398 z m 10,0 v 3.8398 h 5 v -3.8398 z m 10,0 v 3.8398 h 5 v -3.8398 z m 10,0 v 3.8398 h 5 v -3.8398 z m 10,0 v 3.8398 h 5 v -3.8398 z m 10,0 v 3.8398 h 5 v -3.8398 z m 10,0 v 3.8398 h 5 v -3.8398 z m 10,0 v 3.8398 h 5 v -3.8398 z m 10,0 v 3.8398 h 5 v -3.8398 z m 10,0 v 3.8398 h 5 v -3.8398 z m 10,0 v 3.8398 h 5 v -3.8398 z m 10,0 v 3.8398 h 5 v -3.8398 z m 10,0 v 3.8398 h 5 v -3.8398 z m 10,0 v 3.8398 h 5 v -3.8398 z m 10,0 v 3.8398 h 5 v -3.8398 z m 10,0 v 3.8398 h 5 v -3.8398 z m 10,0 v 3.8398 h 5 v -3.8398 z m 10,0 v 3.8398 h 5 v -3.8398 z m 10,0 v 3.8398 h 5 v -3.8398 z m 10,0 v 3.8398 h 5 v -3.8398 z m 9.99994,0 v 3.8398 h 5 v -3.8398 z m 10,0 v 3.8398 h 5 v -3.8398 z m 10,0 v 3.8398 h 5 v -3.8398 z m 10,0 v 3.8398 h 5 v -3.8398 z m 10,0 v 3.8398 h 5 v -3.8398 z m 10,0 v 3.8398 h 5 v -3.8398 z m 10,0 v 3.8398 h 5 v -3.8398 z m 10,0 v 3.8398 h 5 v -3.8398 z m 10,0 v 3.8398 h 5 v -3.8398 z m 10,0 v 3.8398 h 5 v -3.8398 z m 10,0 v 3.8398 h 5 v -3.8398 z m 10,0 v 3.8398 h 5 v -3.8398 z m 10,0 v 3.8398 h 5 v -3.8398 z m 10,0 v 3.8398 h 5 v -3.8398 z m 10,0 v 3.8398 h 5 v -3.8398 z m 10,0 v 3.8398 h 5 v -3.8398 z m 10,0 v 3.8398 h 5 v -3.8398 z m 10,0 v 3.8398 h 5 v -3.8398 z m 10,0 v 3.8398 h 5 v -3.8398 z"
         sodipodi:nodetypes="ccccccccccccccccccccccccccccccccccccccccccccccccccccccccccccccccccccccccccccccccccccccccccccccccccccccccccccccccccccccccccccccccccccccccccccccccccccccccccccccccccccccccccccccccccccccccccccccccccccccccccccccccccccccccccccccccccccccccccccccccccccccccccccccccccccccccccccccccccccccccccccccccccccccccccccccccccccccccccccccccccccccccccccccccccccccccccccccccccc" />
      <path
         id="path23707"
         style="font-style:normal;font-weight:bold;font-size:144px;line-height:125%;font-family:Sans;-inkscape-font-specification:'Sans Bold';letter-spacing:0px;word-spacing:0px;mix-blend-mode:normal;fill:#204a87;fill-opacity:1;stroke:none;stroke-width:0.999999;filter:url(#filter23778)"
         d="m 484.13811,1194.8568 v 0.018 c -7.2e-4,0 -10e-4,0 -0.002,0 h -0.002 l -6.73047,2.5137 -1.53515,0.5722 v 0 0 c 0.0477,0.118 0.0967,0.2244 0.14453,0.3418 0.62074,1.5243 1.25117,2.9946 1.88672,4.4317 0.18039,0.4075 0.36138,0.8163 0.54297,1.2168 0.12118,0.2673 0.2396,0.5483 0.36132,0.8125 0.19924,0.4325 0.39699,0.8572 0.59766,1.2812 0.1998,0.4221 0.40429,0.8385 0.60547,1.252 0.0671,0.1383 0.13779,0.2712 0.20508,0.4082 0.0493,0.1004 0.0992,0.1967 0.14843,0.2968 0.0857,0.1734 0.16797,0.3653 0.25391,0.5372 h 0.002 c 0.0764,0.1528 0.15582,0.2878 0.23243,0.4395 0.1258,0.2517 0.24978,0.5104 0.37695,0.7578 h 0.006 c 0.20347,0.3957 0.40841,0.7885 0.61328,1.1758 0.32306,0.6108 0.6481,1.2028 0.97461,1.7929 0.18069,0.3265 0.36123,0.6506 0.54297,0.9707 0.32972,0.581 0.66097,1.159 0.99414,1.7188 0.21193,0.356 0.41948,0.7014 0.63281,1.0488 0.0826,0.1346 0.16313,0.2689 0.24609,0.4023 0.0757,0.1219 0.15333,0.2422 0.23047,0.3633 0.0565,0.09 0.11138,0.1919 0.16797,0.2813 h 0.002 c 0.0587,0.095 0.12266,0.1788 0.18164,0.2735 0.14831,0.2407 0.29561,0.4819 0.44726,0.7187 0.33827,0.5287 0.6867,1.0466 1.0332,1.5567 0.0873,0.1292 0.17378,0.2589 0.26172,0.3867 0.16071,0.2329 0.32085,0.461 0.48243,0.6894 0.14712,0.2075 0.29676,0.4091 0.44531,0.6133 0.35812,0.4925 0.71759,0.9817 1.08398,1.4551 0.22847,0.2953 0.45782,0.5852 0.68946,0.873 0.12972,0.1612 0.26395,0.3119 0.39453,0.4707 0.10448,0.127 0.20152,0.271 0.30664,0.3965 0.11529,0.1377 0.23746,0.2567 0.35351,0.3926 0.11852,0.1389 0.23407,0.2849 0.35352,0.4219 0.36087,0.4138 0.72951,0.822 1.09765,1.2187 0.11643,0.1255 0.23455,0.2493 0.35157,0.3731 0.11828,0.1249 0.24064,0.2401 0.35937,0.3633 0.10645,0.1102 0.20546,0.2369 0.3125,0.3457 0.0219,0.022 0.0445,0.05 0.0664,0.072 0.12678,0.1284 0.26302,0.235 0.39062,0.3614 0.005,0 0.009,0.01 0.0137,0.014 0.11546,0.1145 0.22733,0.2368 0.34375,0.3496 0.25057,0.2429 0.49827,0.4814 0.75195,0.7168 0.25492,0.2367 0.50953,0.4683 0.76758,0.6973 0.17573,0.156 0.35238,0.3058 0.52929,0.457 0.0837,0.072 0.16206,0.1573 0.2461,0.2285 h 0.002 c 0.10925,0.09 0.22798,0.163 0.33789,0.2519 0.008,0.01 0.017,0.013 0.0254,0.02 0.66413,0.5361 1.33782,1.0565 2.02539,1.5469 0.12515,0.089 0.25491,0.17 0.38086,0.2578 0.14883,0.1037 0.28755,0.2265 0.4375,0.3281 h 0.002 c 0.15202,0.103 0.31558,0.1843 0.46875,0.2851 0.003,0 0.005,0 0.008,0.01 0.80055,0.5266 1.61659,1.0246 2.44922,1.4922 0.15729,0.088 0.30443,0.195 0.46289,0.2812 h 0.002 c 0.15398,0.084 0.31953,0.1467 0.47461,0.2285 0.003,0 0.005,0 0.008,0 0.71733,0.3782 1.44265,0.7426 2.1836,1.0781 0.18895,0.087 0.37909,0.1672 0.56835,0.25 0.11624,0.051 0.22694,0.1165 0.34375,0.1661 0.18085,0.077 0.37441,0.1308 0.55665,0.205 0.43268,0.1764 0.86386,0.355 1.30468,0.5176 0.31401,0.1164 0.62339,0.223 0.94141,0.332 0.16926,0.057 0.34218,0.1117 0.51367,0.168 0.15251,0.05 0.29775,0.1176 0.45117,0.166 0.143,0.045 0.29932,0.073 0.44336,0.1172 0.17549,0.054 0.34953,0.1085 0.52735,0.1602 0.65466,0.1903 1.32422,0.3712 2,0.5351 0.1877,0.046 0.37738,0.086 0.5664,0.1289 0.30718,0.071 0.61626,0.1397 0.92774,0.2051 0.18628,0.04 0.37195,0.08 0.56054,0.1172 0.35068,0.071 0.69866,0.1347 1.05469,0.1973 0.45922,0.081 0.93048,0.1481 1.39844,0.2187 0.47286,0.071 0.94771,0.1408 1.42969,0.2012 0.87827,0.1105 1.76708,0.2094 2.67578,0.2832 0.16477,0.013 0.33601,0.019 0.50195,0.031 0.45621,0.034 0.9171,0.063 1.38086,0.088 0.1457,0.01 0.28727,0.021 0.43359,0.027 0.78171,0.038 1.57594,0.059 2.37891,0.072 h 0.45117 c 0.25722,0 0.50038,0.024 0.75977,0.024 0.34978,0 0.61953,-0.021 0.96093,-0.024 h 0.002 c 0.28598,0 0.57954,0 0.85937,0 1.18802,-0.018 2.32235,-0.042 3.40625,-0.086 0.28145,-0.012 0.55086,-0.027 0.82617,-0.039 0.007,-3e-4 0.0148,4e-4 0.0215,0 0.22846,-0.011 0.51659,-0.01 0.74023,-0.017 2.06486,-0.1123 3.92316,-0.2814 5.58399,-0.5137 0.95708,0.3823 1.91356,1.0123 2.86328,1.8633 0.94978,0.8517 1.89666,1.9253 2.83984,3.1972 0.19241,0.2595 0.38403,0.5622 0.57618,0.8379 2.63559,3.7824 5.24724,9.0421 7.84374,15.3184 h 0.002 c 0.92828,2.244 1.85456,4.6133 2.7793,7.084 0.24496,0.6545 0.48961,1.3689 0.73437,2.0371 3.45221,9.4259 6.8836,20.124 10.31445,30.9356 v 0 c 2.75535,8.6829 5.51061,17.4043 8.27539,25.5118 h 0.002 c 0.92138,2.7018 1.84166,5.336 2.76562,7.877 h 0.002 c 1.84819,5.0826 3.70136,9.7951 5.56446,13.9434 h 0.002 v 0 h 0.0176 36.2793 c 14.41585,-32.0974 28.29263,-97.9557 43.05078,-107.7988 0.1048,-0.07 0.20958,-0.1215 0.31445,-0.1855 0.38674,-0.2368 0.77413,-0.4539 1.16211,-0.6114 0.0131,-0.01 0.0261,-0.012 0.0391,-0.018 3.32164,0.4646 7.43776,0.6836 12.40039,0.6836 3.25372,0 6.33797,-0.1977 9.25196,-0.5976 0,0 0.002,0 0.002,0 1.43147,-0.1965 2.82013,-0.4448 4.16992,-0.7402 0.0449,-0.01 0.0899,-0.019 0.13477,-0.029 1.32282,-0.2934 2.60534,-0.6332 3.84961,-1.0235 0.0259,-0.01 0.0542,-0.013 0.0801,-0.022 0.0248,-0.01 0.0475,-0.019 0.0723,-0.027 1.23825,-0.3935 2.44645,-0.8391 3.625,-1.3359 0.0449,-0.019 0.0899,-0.038 0.13477,-0.057 1.20083,-0.5112 2.37353,-1.0755 3.51367,-1.6953 2.32158,-1.2621 4.51842,-2.7491 6.59765,-4.4668 1.04062,-0.8823 2.05601,-1.8266 3.04688,-2.8301 0.98733,-0.9999 1.94957,-2.059 2.88672,-3.1777 0.002,0 0.004,-0.01 0.006,-0.01 0.003,0 0.007,-0.01 0.01,-0.012 0.93548,-1.1178 1.84583,-2.2927 2.73047,-3.5274 8.3e-4,0 10e-4,0 0.002,0 0.88738,-1.2386 1.75051,-2.5359 2.58594,-3.8906 0,0 0,0 0,0 0.8585,-1.3556 1.70656,-2.7794 2.54297,-4.2715 0,0 0,0 0,0 0.83641,-1.4921 1.66257,-3.0517 2.47656,-4.6797 0.81426,-1.6285 1.61671,-3.3241 2.40821,-5.0879 0.78097,-1.7403 1.55009,-3.5484 2.30859,-5.4199 0.01,-0.025 0.0213,-0.048 0.0312,-0.072 0,0 0,0 0,0 l -1.89062,-0.7051 -6.37696,-2.3828 c -10e-4,0 -9.5e-4,0 -0.002,0.01 -0.65442,1.1959 -1.31311,2.3361 -1.97266,3.4219 0,0 0,0 0,0 -0.66027,1.0869 -1.32449,2.1189 -1.99023,3.0976 -0.63232,0.9296 -1.26675,1.8031 -1.9043,2.6367 -0.0685,0.09 -0.13649,0.1792 -0.20508,0.2676 -0.62121,0.8017 -1.24658,1.561 -1.87304,2.2735 -0.0165,0.019 -0.0323,0.04 -0.0488,0.059 0,0 0,0 0,0 -0.0153,0.017 -0.0315,0.033 -0.0469,0.051 -0.61009,0.6918 -1.23575,1.349 -1.875,1.9766 -0.0651,0.064 -0.12986,0.1281 -0.19531,0.1914 -0.64145,0.6202 -1.29811,1.2089 -1.96875,1.7656 -0.0313,0.026 -0.0624,0.052 -0.0937,0.078 -0.69533,0.5729 -1.40417,1.1138 -2.13086,1.6191 -0.028,0.02 -0.0559,0.039 -0.084,0.059 -0.73109,0.505 -1.47937,0.9747 -2.24219,1.4122 -0.0139,0.01 -0.0271,0.017 -0.041,0.025 -0.0122,0.01 -0.0249,0.013 -0.0371,0.02 -0.70424,0.3922 -1.43421,0.7541 -2.18164,1.0957 -0.0469,0.021 -0.0916,0.045 -0.13867,0.066 -0.005,0 -0.008,0 -0.0117,0.01 -2.463,1.1097 -5.15795,1.9453 -8.07812,2.4883 -3.79681,0.6329 -8.15495,0.9534 -13.12695,0.9532 -3.66766,0 -6.96548,-0.1877 -9.85938,-0.545 h -0.0449 c -0.36689,-0.025 -1.12492,-0.1482 -1.9082,-0.2715 -0.82503,-0.1292 -1.66822,-0.254 -2.99805,-0.5 -24.3757,-4.51 -32.46043,12.4115 -34.20703,17.0801 -0.27338,0.7307 -0.40821,1.1817 -0.40821,1.1817 l -29.61718,82.5859 -0.0234,0.039 -0.0234,-0.039 -29.61719,-82.5859 h -0.002 c 0,0 -0.13484,-0.449 -0.4082,-1.1797 -0.32749,-0.8753 -0.87808,-2.1824 -1.7168,-3.6972 -0.27916,-0.5043 -0.59006,-1.032 -0.93555,-1.5743 h -0.002 c -0.34563,-0.5424 -0.72576,-1.1 -1.14258,-1.6641 h -0.002 c -0.41696,-0.5642 -0.87028,-1.1357 -1.36328,-1.7051 h -0.002 c -0.49312,-0.5694 -1.02555,-1.137 -1.5996,-1.6953 h -0.002 c -0.57449,-0.5586 -1.19121,-1.1077 -1.85156,-1.6387 h -0.002 c -0.47799,-0.3843 -1.00609,-0.7469 -1.53125,-1.1094 -0.2002,-0.1381 -0.3787,-0.2895 -0.58594,-0.4238 -0.75089,-0.4867 -1.54814,-0.9467 -2.39453,-1.373 h -0.002 c -5.08383,-2.5601 -11.93333,-3.8827 -21.07422,-2.1914 -1.3298,0.2461 -2.17304,0.3708 -2.99805,0.5 -0.78253,0.1214 -1.54092,0.2483 -1.9082,0.2734 h -0.0449 c -2.89335,0.3571 -6.19058,0.5449 -9.85742,0.545 h -0.002 c -0.0201,0 -0.0385,0 -0.0586,0 -4.94695,0 -9.28692,-0.3246 -13.06836,-0.9551 -2.89076,-0.5378 -5.55915,-1.3622 -8.00196,-2.4551 h -0.002 c -0.0189,-0.013 -0.0419,-0.024 -0.0606,-0.037 -0.009,0 -0.0131,-0.019 -0.0215,-0.019 -0.27682,-0.1249 -0.54689,-0.2572 -0.81836,-0.3887 -0.0323,-0.016 -0.0635,-0.033 -0.0957,-0.049 -0.23864,-0.1172 -0.47689,-0.2348 -0.71094,-0.3574 -0.24519,-0.1278 -0.49272,-0.2528 -0.73242,-0.3867 -0.002,-6e-4 -0.006,9e-4 -0.008,0 -0.12722,-0.072 -0.25278,-0.1492 -0.3789,-0.2246 -0.48474,-0.2863 -0.96184,-0.5885 -1.4336,-0.9024 -0.16984,-0.1122 -0.34189,-0.2196 -0.50976,-0.3359 -0.10915,-0.076 -0.2162,-0.155 -0.32422,-0.2324 -0.55206,-0.3931 -1.09515,-0.8039 -1.62891,-1.2364 -0.088,-0.071 -0.17532,-0.1417 -0.26367,-0.2148 -0.0765,-0.063 -0.15264,-0.1277 -0.22851,-0.1914 -0.4262,-0.3589 -0.84155,-0.7422 -1.25586,-1.127 -0.29771,-0.2758 -0.59901,-0.551 -0.89063,-0.8398 -0.53113,-0.5281 -1.05165,-1.0776 -1.5625,-1.6504 -0.0672,-0.075 -0.13533,-0.1477 -0.20117,-0.2227 -0.0953,-0.108 -0.18999,-0.2239 -0.28516,-0.334 -0.50648,-0.5858 -1.01257,-1.1975 -1.51562,-1.8417 -0.0109,-0.014 -0.0204,-0.027 -0.0312,-0.041 -0.0628,-0.082 -0.1238,-0.1652 -0.1875,-0.248 -0.0928,-0.1206 -0.18562,-0.2434 -0.2793,-0.3652 -0.50688,-0.6704 -1.01205,-1.3667 -1.51562,-2.0977 -0.23312,-0.3391 -0.46474,-0.6986 -0.69727,-1.0508 -0.37207,-0.5628 -0.74488,-1.1376 -1.11523,-1.7344 -0.1303,-0.2101 -0.26044,-0.4126 -0.39063,-0.6269 -0.0978,-0.1611 -0.19401,-0.3256 -0.29101,-0.4883 -0.30224,-0.5056 -0.60316,-1.0416 -0.9043,-1.5703 -0.25886,-0.4538 -0.51826,-0.8935 -0.77539,-1.3633 z m 341.51562,69.2656 v 15.6153 h 19.14453 v -15.6153 z m 103.83985,1.2637 v 83.1074 h 20.71484 c 11.42858,0 19.9986,-0.8906 25.71289,-2.6718 5.71429,-1.8184 10.61368,-4.8809 14.69531,-9.1856 3.57144,-3.7481 6.22429,-8.0703 7.95899,-12.9687 1.73459,-4.9356 2.60149,-10.539 2.60149,-16.8106 0,-6.1973 -0.8669,-11.746 -2.60149,-16.6445 -1.7347,-4.8985 -4.38755,-9.2226 -7.95899,-12.9707 -4.04762,-4.3048 -8.91152,-7.3477 -14.59179,-9.1289 -5.64626,-1.8184 -14.25178,-2.7266 -25.81641,-2.7266 z m -215.90235,0.6621 c -13.76111,2e-4 -24.59738,3.6907 -32.51171,11.0703 -7.91443,7.3797 -11.87305,17.5032 -11.87305,30.3731 0,12.7272 3.88638,22.8167 11.6582,30.2676 7.77177,7.4153 18.30588,11.123 31.60352,11.123 5.88228,0 11.5874,-0.6234 17.11328,-1.8711 5.52575,-1.2478 10.85454,-3.1196 15.98828,-5.6152 v -38.3965 h -32.08399 v 13.7969 h 12.56641 v 15.5078 c -1.46174,0.5705 -3.1189,0.9982 -4.97265,1.2832 -1.81824,0.2507 -3.79857,0.375 -5.9375,0.375 -7.87881,0 -13.95638,-2.2996 -18.23438,-6.8985 -4.2781,-4.5988 -6.41801,-11.1231 -6.41797,-19.5722 -4e-5,-8.5206 2.21018,-15.0618 6.63086,-19.625 4.45627,-4.5991 10.78473,-6.8985 18.98438,-6.8985 4.4206,0 8.82393,0.6233 13.20898,1.8711 4.42061,1.2475 8.85805,3.137 13.31445,5.668 v -16.5234 c -4.31377,-1.9607 -8.91086,-3.4392 -13.79492,-4.4375 -4.84852,-0.998 -9.93033,-1.4979 -15.24219,-1.4981 z m 235.54493,15.5352 h 7.04101 c 8.06123,0 14.20028,2.1523 18.41797,6.457 4.21769,4.3047 6.32617,10.578 6.32617,18.8164 0,8.2755 -2.12525,14.5839 -6.37695,18.9258 -4.21769,4.3418 -10.33997,6.5117 -18.36719,6.5117 h -7.04101 z m 88.53904,3.0625 c -3.9456,0 -7.8904,0.2773 -11.836,0.834 -3.9456,0.5195 -7.8736,1.2988 -11.7851,2.3378 v 15.1973 c 2.8911,-1.707 6.0193,-2.9883 9.3867,-3.8418 3.3673,-0.8535 7.0084,-1.2793 10.9199,-1.2793 4.8299,0 8.3832,0.7422 10.6621,2.2266 2.2789,1.4473 3.418,3.748 3.418,6.9023 v 1.5586 h -10.7656 c -9.864,0 -17.1086,1.707 -21.7344,5.1211 -4.5919,3.4141 -6.8867,8.7773 -6.8867,16.0879 0,6.0118 1.8363,10.9101 5.5097,14.6953 3.7075,3.7481 8.5211,5.6211 14.4395,5.6211 4.3878,0 8.1106,-0.8535 11.1719,-2.5605 3.0612,-1.7442 5.8166,-4.5078 8.2656,-8.293 v 9.2402 h 18.4199 v -35.5703 c 0,-9.9825 -2.2968,-17.1816 -6.8887,-21.5976 -4.5578,-4.4532 -11.9907,-6.6797 -22.2968,-6.6797 z m 128.8652,0 c -8.5714,0 -14.9304,1.5956 -19.0801,4.7871 -4.1496,3.1914 -6.2246,8.0898 -6.2246,14.6953 0,6.1231 1.6312,10.6875 4.8965,13.6934 3.2653,3.0058 8.9645,5.0663 17.0937,6.1796 l 3.2129,0.4454 c 3.7075,0.4824 6.174,1.1679 7.3985,2.0585 1.2585,0.8536 1.8886,2.1719 1.8886,3.9532 0,2.1152 -0.9023,3.7109 -2.705,4.7871 -1.8027,1.0762 -4.4891,1.6133 -8.0606,1.6133 -3.9456,0 -7.84,-0.4824 -11.6836,-1.4473 -3.8095,-0.9649 -7.5343,-2.4121 -11.1738,-4.3418 v 15.1406 c 4.2517,1.2989 8.3848,2.2637 12.3984,2.8946 4.0477,0.6679 7.9589,1.0019 11.7344,1.0019 8.9116,0 15.6118,-1.6699 20.1016,-5.0098 4.4898,-3.3398 6.7343,-8.33 6.7343,-14.9726 0,-6.3458 -1.6144,-11.0039 -4.8457,-13.9727 -3.2313,-2.9687 -9.5251,-5.1015 -18.8789,-6.4004 l -3.2148,-0.5019 c -3.2993,-0.4082 -5.5942,-1.0391 -6.8867,-1.8926 -1.2585,-0.8535 -1.8887,-2.0781 -1.8887,-3.6738 0,-1.9668 0.8333,-3.4141 2.5,-4.3418 1.7007,-0.9649 4.2865,-1.4473 7.7559,-1.4473 3.2313,0 6.6671,0.4453 10.3066,1.336 3.6395,0.8906 7.4146,2.2265 11.3262,4.0078 v -15.1407 c -4.3538,-1.1875 -8.3843,-2.0605 -12.0918,-2.6171 -3.7075,-0.5567 -7.246,-0.834 -10.6133,-0.834 z m -95.4785,1.5019 25.4609,64.7383 -0.5117,1.7266 c -0.7823,2.7832 -1.8878,4.7128 -3.3164,5.789 -1.3946,1.0762 -3.6391,1.6133 -6.7344,1.6133 h -5.7129 v 13.082 h 10.5606 c 5.2721,0 9.5058,-1.3925 12.7031,-4.1757 3.2313,-2.7462 6.0557,-7.5879 8.4707,-14.5274 l 24.0293,-68.2461 h -18.2637 l -13.0625,42.3067 -15.3574,-42.3067 z m -316.51949,1.291 v 36.5782 c 0,8.0928 1.79966,14.2594 5.40039,18.5019 3.63633,4.2423 8.91387,6.3633 15.83007,6.3633 3.88588,0 7.43204,-0.8191 10.64063,-2.459 3.24414,-1.6757 6.30954,-4.2602 9.19726,-7.7539 v 8.6621 h 19.14454 v -59.8926 h -19.14454 v 29.5723 c -3e-5,5.4546 -1.14029,9.7155 -3.42187,12.7813 -2.28167,3.0661 -5.41931,4.5976 -9.41211,4.5976 -1.63996,0 -3.10139,-0.338 -4.38476,-1.0156 -1.2478,-0.6773 -2.2626,-1.6408 -3.04688,-2.8887 -0.60607,-0.9626 -1.03366,-2.4941 -1.2832,-4.5976 -0.24953,-2.139 -0.37502,-5.615 -0.375,-10.4278 0,-1.6398 0.017,-4.9027 0.0527,-9.7871 0.0353,-4.9194 0.0547,-9.0018 0.0547,-12.2461 v -5.9883 z m 71.11132,0 v 59.8926 h 19.14453 v -59.8926 z m 31.17579,0 21.60351,29.252 -22.67383,30.6406 h 20.26758 l 13.31641,-18.9297 13.47461,18.9297 h 20.26757 l -22.67382,-30.748 21.60547,-29.1446 h -20.26758 l -12.40625,17.7539 -12.2461,-17.7539 z m 182.12298,33 h 9.4883 v 2.2813 c 0,4.045 -1.1726,7.4218 -3.5195,10.1309 -2.347,2.6719 -5.2385,4.0078 -8.6739,4.0078 -2.7551,0 -4.9158,-0.7051 -6.4804,-2.1153 -1.5306,-1.4473 -2.295,-3.4316 -2.295,-5.955 0,-2.7462 0.9527,-4.8243 2.8575,-6.2344 1.9387,-1.4102 4.8135,-2.1153 8.623,-2.1153 z" />
      <g
         id="g23661"
         transform="translate(4.5754267e-5,-16.723129)">
        <path
           id="path3368"
           d="m 722.76454,1205.5939 c -2.62165,4.7913 -5.28318,8.6922 -7.99516,11.7657 -2.62162,2.9832 -5.51256,5.3694 -8.67655,7.1775 -3.07364,1.7176 -6.56102,2.9565 -10.44822,3.6794 -3.79681,0.6329 -8.15637,0.9544 -13.12839,0.9542 -3.66766,0 -6.96378,-0.1879 -9.85768,-0.5452 -0.0109,0 -0.0336,0 -0.0455,0 -0.36689,-0.025 -1.12464,-0.1492 -1.90794,-0.2725 -0.82503,-0.1292 -1.66837,-0.2538 -2.9982,-0.4998 -24.3757,-4.51 -32.45993,12.412 -34.20653,17.0806 -0.27338,0.7307 -0.40884,1.181 -0.40884,1.181 l -29.61842,82.5863 -18.17078,30.8905 h 36.29617 c 14.90719,-33.1914 29.23898,-102.4942 44.56389,-108.6158 3.32165,0.4646 7.43893,0.6812 12.40158,0.6812 6.50885,0 12.33657,-0.7802 17.48941,-2.4076 5.15279,-1.6273 9.78766,-4.1512 13.94609,-7.5863 4.15841,-3.5256 7.92107,-8.0224 11.26591,-13.4466 3.43519,-5.4238 6.6931,-11.9399 9.76678,-19.5334 z"
           style="font-style:normal;font-weight:bold;font-size:144px;line-height:125%;font-family:Sans;-inkscape-font-specification:'Sans Bold';letter-spacing:0px;word-spacing:0px;fill:#ffbf2d;fill-opacity:1;stroke:none;stroke-width:0.999999"
           inkscape:connector-curvature="0" />
        <path
           inkscape:connector-curvature="0"
           id="path3370"
           d="m 722.76361,1205.5974 c -2.62165,4.7913 -5.28298,8.6867 -7.99499,11.7602 -2.62159,2.9834 -5.51368,5.3707 -8.67764,7.1786 -0.7612,0.4253 -1.54595,0.8162 -2.3577,1.1824 -0.009,0 -0.0127,0.018 -0.0211,0.018 -1.02175,0.7186 -2.33597,1.3355 -4.11716,1.7593 -20.54355,4.8914 -34.53641,23.1995 -35.85074,24.9705 0.59594,-0.4899 1.19583,-0.8902 1.79465,-1.1965 0.0901,-0.047 0.17737,-0.091 0.26745,-0.1346 0.0145,0 0.0278,-0.018 0.0422,-0.022 0.10442,-0.049 0.21224,-0.091 0.31669,-0.1346 3.32164,0.4646 7.43805,0.6828 12.40068,0.6828 6.50885,0 12.3362,-0.7868 17.48902,-2.4139 5.15281,-1.6274 9.78351,-4.1446 13.94198,-7.5799 4.1584,-3.5256 7.92274,-8.0253 11.26759,-13.4493 3.43518,-5.424 6.69486,-11.9432 9.7685,-19.5371 l -8.26947,-3.0826 z"
           style="font-style:normal;font-weight:bold;font-size:144px;line-height:125%;font-family:Sans;-inkscape-font-specification:'Sans Bold';letter-spacing:0px;word-spacing:0px;fill:url(#linearGradient3841);fill-opacity:1;stroke:none;stroke-width:0.999999" />
        <path
           id="path3372"
           d="m 484.13622,1205.5939 c 2.62166,4.7913 5.28315,8.6922 7.99515,11.7657 2.62162,2.9832 5.51256,5.3694 8.67656,7.1775 3.07361,1.7176 6.56101,2.9565 10.4482,3.6794 3.79684,0.6331 8.15638,0.9544 13.1284,0.9542 3.66767,0 6.96378,-0.1879 9.85766,-0.5452 0.0109,0 0.0336,0 0.0455,0 0.36688,-0.025 1.12463,-0.1492 1.90795,-0.2725 0.82502,-0.1292 1.66837,-0.2538 2.99818,-0.4998 24.37572,-4.51 32.45994,12.412 34.20654,17.0806 0.27339,0.7307 0.40884,1.181 0.40884,1.181 l 29.61839,82.5863 18.17081,30.8905 h -36.29616 c -14.90719,-33.1914 -29.23896,-102.4942 -44.56389,-108.6158 -3.32165,0.4646 -7.43895,0.6812 -12.40158,0.6812 -6.50885,0 -12.33657,-0.7802 -17.48941,-2.4076 -5.15281,-1.6273 -9.78768,-4.1512 -13.94609,-7.5863 -4.1584,-3.5256 -7.92107,-8.0224 -11.2659,-13.4466 -3.4352,-5.4238 -6.69315,-11.9399 -9.76681,-19.5334 l 8.26771,-3.0892 z"
           style="font-style:normal;font-weight:bold;font-size:144px;line-height:125%;font-family:Sans;-inkscape-font-specification:'Sans Bold';letter-spacing:0px;word-spacing:0px;fill:#ffbf2d;fill-opacity:1;stroke:none;stroke-width:0.999999"
           inkscape:connector-curvature="0" />
        <path
           inkscape:connector-curvature="0"
           style="font-style:normal;font-weight:bold;font-size:144px;line-height:125%;font-family:Sans;-inkscape-font-specification:'Sans Bold';letter-spacing:0px;word-spacing:0px;fill:url(#linearGradient900);fill-opacity:1;stroke:none;stroke-width:0.999999"
           d="m 484.13475,1205.5928 c 2.62165,4.7914 5.28315,8.692 7.99514,11.7657 2.62162,2.9832 5.51257,5.3694 8.67655,7.1775 3.07363,1.7176 6.56102,2.9563 10.44822,3.6794 3.79683,0.6331 8.15637,0.9542 13.12841,0.9538 3.66766,0 6.96377,-0.1877 9.85766,-0.5448 0.0109,0 0.0337,0 0.0455,0 0.36687,-0.025 1.12464,-0.151 1.90796,-0.2725 0.82501,-0.1292 1.66837,-0.2538 2.99817,-0.4999 24.37571,-4.5101 32.45994,12.412 34.20654,17.0807 0.27336,0.7307 0.40884,1.181 0.40884,1.181 l 29.6184,82.5863 15.26348,30.8905 h -33.38885 c -14.90717,-33.1916 -29.23896,-102.4942 -44.56389,-108.616 -3.32163,0.4646 -7.43895,0.6813 -12.4016,0.6813 -6.50881,0 -12.33654,-0.7805 -17.48937,-2.4075 -5.1528,-1.6273 -9.78768,-4.1512 -13.94609,-7.5865 -4.15839,-3.5255 -7.92107,-8.0223 -11.26589,-13.4464 -3.43521,-5.4238 -6.69315,-11.9399 -9.76682,-19.5334 l 8.26771,-3.0892 z"
           id="path3374"
           sodipodi:nodetypes="ccccccccsscccccccccccc" />
        <path
           sodipodi:nodetypes="ccc"
           d="m 603.4199,1328.6882 -18.09948,30.9034 h 36.27803"
           style="font-style:normal;font-weight:bold;font-size:144px;line-height:125%;font-family:Sans;-inkscape-font-specification:'Sans Bold';letter-spacing:0px;word-spacing:0px;fill:url(#linearGradient3845);fill-opacity:1;stroke:none;stroke-width:0.999999"
           id="path3376"
           inkscape:connector-curvature="0" />
        <path
           inkscape:connector-curvature="0"
           id="path3378"
           d="m 484.13868,1205.5974 -8.26947,3.0826 c 0.9605,2.3731 1.93848,4.6436 2.93478,6.8056 0.19924,0.4325 0.39753,0.8569 0.5982,1.2809 7.8e-4,0 -7.6e-4,0 0,0 0.1998,0.4221 0.40409,0.839 0.60527,1.2525 0.0671,0.1383 0.1368,0.2714 0.20409,0.4084 0.33742,0.6875 0.6721,1.3698 1.01344,2.0338 0.002,0 0.005,0 0.007,0 0.20347,0.3957 0.40744,0.7881 0.61231,1.1754 0.82627,1.5623 1.66383,3.0573 2.51251,4.4832 0.21193,0.356 0.42008,0.7011 0.63341,1.0485 0.0826,0.1346 0.16336,0.2678 0.24632,0.4012 0.13189,0.2124 0.26862,0.4242 0.40116,0.6334 0.20904,0.3389 0.41404,0.6747 0.62636,1.0063 0.33827,0.5287 0.68806,1.0453 1.03456,1.5554 0.0873,0.1292 0.17245,0.2594 0.26039,0.3872 0.2199,0.3187 0.43842,0.6316 0.66156,0.943 0.44406,0.6196 0.89439,1.2254 1.35126,1.8157 0.22847,0.2953 0.45808,0.5849 0.68972,0.8727 0.46329,0.5756 0.93159,1.1362 1.40758,1.6822 0.36087,0.4138 0.72976,0.8208 1.0979,1.2175 0.11643,0.1255 0.23486,0.2492 0.35188,0.373 0.48978,0.5173 0.98262,1.0189 1.48499,1.506 0.25057,0.2429 0.49936,0.4825 0.75304,0.7179 0.25492,0.2367 0.50908,0.4677 0.76713,0.6967 0.25681,0.228 0.51426,0.4483 0.77416,0.6686 0.77971,0.6441 1.5794,1.2566 2.39288,1.8368 2.16926,1.5472 4.45939,2.8681 6.87597,3.9625 0.30205,0.1382 0.60185,0.2714 0.90786,0.4009 0.61398,0.2607 1.23501,0.5068 1.86504,0.7392 0.31401,0.1164 0.62505,0.2219 0.94307,0.3309 0.31801,0.1073 0.64213,0.2148 0.96418,0.3165 0.32205,0.1019 0.64389,0.2005 0.97122,0.2956 0.65466,0.1903 1.32297,0.3709 1.99875,0.5348 0.33789,0.082 0.67731,0.1565 1.02048,0.2324 0.34317,0.074 0.68612,0.1491 1.03456,0.2181 0.35068,0.071 0.69965,0.1346 1.05568,0.1972 0.70747,0.1255 1.42492,0.2381 2.15358,0.3378 1.09299,0.1492 2.20931,0.2732 3.35002,0.3658 0.76046,0.062 1.53373,0.111 2.31543,0.1474 0.78171,0.038 1.57583,0.058 2.3788,0.071 0.40149,0 0.8037,0 1.21051,0 0.62031,0 1.22879,-2e-4 1.8228,0 1.18802,-0.018 2.32242,-0.042 3.40632,-0.086 0.53956,-0.022 1.06947,-0.042 1.58351,-0.071 0.51622,-0.027 1.02246,-0.062 1.51314,-0.098 1.472,-0.1073 2.82928,-0.2408 4.0749,-0.4151 0.10442,0.042 0.21233,0.085 0.3167,0.1346 0.0146,0 0.0278,0.018 0.0422,0.022 0.0902,0.042 0.17737,0.087 0.26744,0.1346 0.59918,0.3067 1.19834,0.7062 1.79464,1.1964 -1.31156,-1.7675 -15.30482,-20.0785 -35.85076,-24.9702 -1.78116,-0.424 -3.09538,-1.0409 -4.11712,-1.7595 -0.009,0 -0.0127,-0.018 -0.0211,-0.018 -0.80989,-0.3653 -1.59808,-0.758 -2.35767,-1.1824 -0.002,-6e-4 -0.005,9e-4 -0.007,0 -0.19602,-0.111 -0.39025,-0.2283 -0.58415,-0.3448 -0.002,-7e-4 -0.005,8e-4 -0.007,0 -0.19562,-0.1182 -0.38361,-0.2368 -0.57709,-0.3589 -0.38858,-0.245 -0.77422,-0.4966 -1.15421,-0.76 -0.18923,-0.131 -0.37591,-0.2656 -0.56301,-0.4014 -0.37684,-0.2732 -0.74375,-0.5524 -1.11199,-0.8444 -0.18286,-0.1455 -0.36117,-0.2869 -0.54191,-0.4364 -0.18208,-0.151 -0.36198,-0.3022 -0.54191,-0.4574 -0.17864,-0.1546 -0.35134,-0.3129 -0.52783,-0.4715 -0.88255,-0.7932 -1.73903,-1.6389 -2.56883,-2.5477 -0.16591,-0.182 -0.33583,-0.3695 -0.49969,-0.556 -0.60301,-0.6834 -1.20352,-1.4087 -1.80168,-2.1746 -0.0744,-0.095 -0.1439,-0.1921 -0.21817,-0.2887 -0.16791,-0.2181 -0.33913,-0.4368 -0.50673,-0.6615 -0.83795,-1.124 -1.66934,-2.333 -2.49843,-3.6245 -0.33163,-0.5166 -0.66204,-1.0469 -0.99233,-1.5906 -0.16518,-0.272 -0.32783,-0.5447 -0.49263,-0.8234 -0.49287,-0.8335 -0.98794,-1.7016 -1.47797,-2.597 z"
           style="font-style:normal;font-weight:bold;font-size:144px;line-height:125%;font-family:Sans;-inkscape-font-specification:'Sans Bold';letter-spacing:0px;word-spacing:0px;fill:url(#linearGradient3847);fill-opacity:1;stroke:none;stroke-width:0.999999" />
      </g>
      <g
         id="g23667"
         transform="translate(4.5754267e-5,-16.723129)">
        <path
           inkscape:connector-curvature="0"
           id="path4181"
           style="font-style:normal;font-weight:bold;font-size:144px;line-height:125%;font-family:Sans;-inkscape-font-specification:'Sans Bold';letter-spacing:0px;word-spacing:0px;fill:#ffffff;fill-opacity:1;stroke:none;stroke-width:0.999999"
           d="m 745.57037,1352.1188 c -5.13374,2.4956 -10.46348,4.3673 -15.98923,5.6151 -5.52588,1.2477 -11.22993,1.8715 -17.11221,1.8715 -13.29764,0 -23.83234,-3.7076 -31.60411,-11.1229 -7.77182,-7.4509 -11.65771,-17.5399 -11.65771,-30.2671 0,-12.8699 3.95718,-22.9946 11.87161,-30.3743 7.91435,-7.3796 18.75209,-11.0694 32.5132,-11.0696 5.31186,2e-4 10.39204,0.4994 15.24056,1.4974 4.88406,0.9983 9.48297,2.4779 13.79674,4.4386 v 16.5238 c -4.4564,-2.531 -8.89485,-4.4206 -13.31546,-5.6681 -4.38505,-1.2478 -8.78788,-1.8718 -13.20848,-1.8718 -8.19965,0 -14.5276,2.2994 -18.98387,6.8985 -4.42068,4.5632 -6.63102,11.1049 -6.63098,19.6255 -4e-5,8.4491 2.13899,14.9732 6.41709,19.572 4.278,4.5989 10.3564,6.8983 18.23521,6.8983 2.13895,0 4.11755,-0.1237 5.93579,-0.3744 1.85377,-0.285 3.5115,-0.7127 4.97324,-1.2832 v -15.508 h -12.5668 v -13.7968 h 32.08541 v 38.3955" />
        <path
           inkscape:connector-curvature="0"
           id="path4183"
           style="font-style:normal;font-weight:bold;font-size:144px;line-height:125%;font-family:Sans;-inkscape-font-specification:'Sans Bold';letter-spacing:0px;word-spacing:0px;fill:#ffffff;fill-opacity:1;stroke:none;stroke-width:0.999999"
           d="m 754.54241,1334.7392 v -36.5772 h 19.25125 v 5.9892 c -4e-5,3.2443 -0.0182,7.3264 -0.0535,12.2458 -0.0357,4.8844 -0.0535,8.1464 -0.0535,9.7862 -2e-5,4.8128 0.1248,8.2886 0.37433,10.4276 0.24954,2.1035 0.67735,3.6363 1.28342,4.5989 0.78428,1.2479 1.80032,2.2104 3.04812,2.8877 1.28339,0.6776 2.74505,1.0162 4.38501,1.0162 3.9928,0 7.13004,-1.5328 9.41171,-4.5989 2.28158,-3.0658 3.4224,-7.3261 3.42245,-12.7807 v -29.572 h 19.14429 v 59.8928 H 795.6117 v -8.6631 c -2.88774,3.4937 -5.95367,6.0782 -9.19781,7.7539 -3.20859,1.6399 -6.7558,2.4598 -10.64168,2.4598 -6.9162,0 -12.19245,-2.1211 -15.82878,-6.3634 -3.60073,-4.2425 -5.40105,-10.41 -5.40105,-18.5028" />
        <path
           inkscape:connector-curvature="0"
           id="path4185"
           style="font-style:normal;font-weight:bold;font-size:144px;line-height:125%;font-family:Sans;-inkscape-font-specification:'Sans Bold';letter-spacing:0px;word-spacing:0px;fill:#ffffff;fill-opacity:1;stroke:none;stroke-width:0.999999"
           d="m 825.65317,1298.162 h 19.1443 v 59.8928 h -19.1443 v -59.8928 m 0,-23.3155 h 19.1443 v 15.615 h -19.1443 v -15.615" />
        <path
           inkscape:connector-curvature="0"
           id="path4187"
           style="font-style:normal;font-weight:bold;font-size:144px;line-height:125%;font-family:Sans;-inkscape-font-specification:'Sans Bold';letter-spacing:0px;word-spacing:0px;fill:#ffffff;fill-opacity:1;stroke:none;stroke-width:0.999999"
           d="m 878.43367,1327.4131 -21.60418,-29.2511 h 20.26729 l 12.24592,17.7538 12.40636,-17.7538 h 20.26728 l -21.60416,29.1441 22.67366,30.7487 h -20.26725 l -13.47589,-18.9305 -13.31544,18.9305 h -20.26728 l 22.67369,-30.6417" />
      </g>
      <g
         id="g45522"
         transform="translate(-55.817073,11.276873)">
        <text
           xml:space="preserve"
           style="font-style:normal;font-variant:normal;font-weight:bold;font-stretch:normal;font-size:45.3271px;line-height:1.25;font-family:sans-serif;-inkscape-font-specification:'sans-serif Bold';fill:#204a87;fill-opacity:1;stroke-width:0.999999"
           x="538.90039"
           y="1546.8124"
           id="text23827"
           transform="scale(1.07994,0.92597737)"><tspan
             sodipodi:role="line"
             x="538.90039"
             y="1546.8124"
             id="tspan23825"
             style="font-style:normal;font-variant:normal;font-weight:bold;font-stretch:normal;font-family:sans-serif;-inkscape-font-specification:'sans-serif Bold';fill:#204a87;fill-opacity:1;stroke-width:0.999999"><tspan
               dy="0 0 0 0 0"
               id="tspan23823"
               style="font-style:normal;font-variant:normal;font-weight:bold;font-stretch:normal;font-family:sans-serif;-inkscape-font-specification:'sans-serif Bold';fill:#204a87;fill-opacity:1;stroke-width:0.999999">19-20 FEBRUARY 2022</tspan></tspan></text>
        <text
           xml:space="preserve"
           style="font-style:normal;font-variant:normal;font-weight:bold;font-stretch:normal;font-size:45.3271px;line-height:1.25;font-family:sans-serif;-inkscape-font-specification:'sans-serif Bold';fill:#ffffff;fill-opacity:1;stroke-width:0.999999"
           x="538.90039"
           y="1548.9723"
           id="text26822"
           transform="scale(1.07994,0.92597737)"><tspan
             sodipodi:role="line"
             x="538.90039"
             y="1548.9723"
             id="tspan26824"
             style="font-style:normal;font-variant:normal;font-weight:bold;font-stretch:normal;font-family:sans-serif;-inkscape-font-specification:'sans-serif Bold';fill:#ffffff;fill-opacity:1;stroke-width:0.999999"><tspan
               dy="0 0 0 0 0"
               id="tspan16986"
               style="font-style:normal;font-variant:normal;font-weight:bold;font-stretch:normal;font-family:sans-serif;-inkscape-font-specification:'sans-serif Bold';fill:#ffffff;fill-opacity:1;stroke-width:0.999999">19-20 FEBRUARY 2022</tspan></tspan></text>
      </g>
      <g
         id="g45528"
         transform="translate(168.3435,-8.7231276)">
        <text
           xml:space="preserve"
           style="font-style:normal;font-variant:normal;font-weight:bold;font-stretch:normal;font-size:45.3271px;line-height:1.25;font-family:sans-serif;-inkscape-font-specification:'sans-serif Bold';fill:#204a87;fill-opacity:1;stroke-width:0.999999"
           x="512.97314"
           y="1628.8879"
           id="text23831"
           transform="scale(1.07994,0.92597737)"><tspan
             sodipodi:role="line"
             x="512.97314"
             y="1628.8879"
             id="tspan23829"
             style="font-style:normal;font-variant:normal;font-weight:bold;font-stretch:normal;font-family:sans-serif;-inkscape-font-specification:'sans-serif Bold';fill:#204a87;fill-opacity:1;stroke-width:0.999999">ONLINE!</tspan></text>
        <text
           xml:space="preserve"
           style="font-style:normal;font-variant:normal;font-weight:bold;font-stretch:normal;font-size:45.3271px;line-height:1.25;font-family:sans-serif;-inkscape-font-specification:'sans-serif Bold';fill:#ffffff;fill-opacity:1;stroke-width:0.999999"
           x="512.97314"
           y="1631.0479"
           id="text15686"
           transform="scale(1.07994,0.92597737)"><tspan
             sodipodi:role="line"
             x="512.97314"
             y="1631.0479"
             id="tspan15684"
             style="font-style:normal;font-variant:normal;font-weight:bold;font-stretch:normal;font-family:sans-serif;-inkscape-font-specification:'sans-serif Bold';fill:#ffffff;fill-opacity:1;stroke-width:0.999999">ONLINE!</tspan></text>
      </g>
      <text
         xml:space="preserve"
         style="font-weight:bold;font-size:109.142px;line-height:1.25;font-family:sans-serif;-inkscape-font-specification:'sans-serif Bold';letter-spacing:-2.16481px;fill:#ffbf2d;fill-opacity:1;stroke-width:0.999999"
         x="960.85785"
         y="1285.2701"
         id="text29655"
         transform="scale(0.95737544,1.0445223)"><tspan
           sodipodi:role="line"
           id="tspan29653"
           x="960.85785"
           y="1285.2701"
           style="fill:#ffbf2d;fill-opacity:1;stroke-width:0.999999">Days</tspan></text>
      <rect
         style="fill:url(#linearGradient46009);fill-opacity:1;stroke:none;stroke-width:2.00001;stroke-dasharray:4.00002, 4.00002;stroke-opacity:1"
         id="rect34126"
         width="755.20703"
         height="1.0000001"
         x="456.86661"
         y="1380.4116" />
      <path
         id="path49837"
         style="fill:#ffffff;fill-opacity:1;stroke:none;stroke-width:2.00001;stroke-dasharray:4.00002, 4.00002;stroke-opacity:1"
         d="m 1103.2299,1206.8768 a 21.72058,21.72058 0 0 0 -21.7188,21.7207 21.72058,21.72058 0 0 0 21.7188,21.7207 21.72058,21.72058 0 0 0 21.7207,-21.7207 21.72058,21.72058 0 0 0 -21.7207,-21.7207 z m 0,3.9805 a 17.741729,17.741729 0 0 1 17.7421,17.7402 17.741729,17.741729 0 0 1 -17.7421,17.7422 17.741729,17.741729 0 0 1 -17.7403,-17.7422 17.741729,17.741729 0 0 1 17.7403,-17.7402 z" />
      <g
         id="g62059"
         style="fill:#204a87"
         transform="translate(0,16.000001)">
        <path
           style="fill:#204a87;stroke:#ffbf2d;stroke-width:3;stroke-linecap:round;stroke-linejoin:miter;stroke-miterlimit:4;stroke-dasharray:none;stroke-opacity:1"
           d="m 1130.8986,1212.5981 h 18.6645"
           id="path53249" />
        <path
           style="fill:#204a87;stroke:#ffbf2d;stroke-width:3;stroke-linecap:round;stroke-linejoin:miter;stroke-miterlimit:4;stroke-dasharray:none;stroke-opacity:1"
           d="m 1056.8986,1212.5981 h 18.6645"
           id="path56414" />
      </g>
      <g
         id="g62410"
         transform="rotate(-111.83649,1108.6436,1220.5982)"
         style="fill:#204a87;stroke:#ffffff">
        <path
           style="fill:#204a87;stroke:#ffffff;stroke-width:3;stroke-linecap:round;stroke-linejoin:miter;stroke-miterlimit:4;stroke-dasharray:none;stroke-opacity:1"
           d="m 1103.2309,1184.9304 v -10.6645"
           id="path56530"
           sodipodi:nodetypes="cc" />
        <path
           style="fill:#204a87;stroke:#ffffff;stroke-width:3;stroke-linecap:round;stroke-linejoin:miter;stroke-miterlimit:4;stroke-dasharray:none;stroke-opacity:1"
           d="m 1103.2309,1250.9304 v -10.6645"
           id="path56532"
           sodipodi:nodetypes="cc" />
      </g>
      <g
         id="g62065"
         transform="rotate(-45,1122.5446,1220.5981)"
         style="fill:#204a87">
        <path
           style="fill:#204a87;stroke:#ffbf2d;stroke-width:3;stroke-linecap:round;stroke-linejoin:miter;stroke-miterlimit:4;stroke-dasharray:none;stroke-opacity:1"
           d="m 1130.8986,1212.5981 h 18.6645"
           id="path62061" />
        <path
           style="fill:#204a87;stroke:#ffbf2d;stroke-width:3;stroke-linecap:round;stroke-linejoin:miter;stroke-miterlimit:4;stroke-dasharray:none;stroke-opacity:1"
           d="m 1056.8986,1212.5981 h 18.6645"
           id="path62063" />
      </g>
      <g
         id="g62071"
         transform="rotate(-135,1106.5446,1220.5981)"
         style="fill:#204a87">
        <path
           style="fill:#204a87;stroke:#ffbf2d;stroke-width:3;stroke-linecap:round;stroke-linejoin:miter;stroke-miterlimit:4;stroke-dasharray:none;stroke-opacity:1"
           d="m 1130.8986,1212.5981 h 18.6645"
           id="path62067" />
        <path
           style="fill:#204a87;stroke:#ffbf2d;stroke-width:3;stroke-linecap:round;stroke-linejoin:miter;stroke-miterlimit:4;stroke-dasharray:none;stroke-opacity:1"
           d="m 1056.8986,1212.5981 h 18.6645"
           id="path62069" />
      </g>
      <g
         id="g62416"
         transform="rotate(-66.961278,1115.3265,1220.5982)"
         style="fill:#204a87;stroke:#ffffff">
        <path
           style="fill:#204a87;stroke:#ffffff;stroke-width:3;stroke-linecap:round;stroke-linejoin:miter;stroke-miterlimit:4;stroke-dasharray:none;stroke-opacity:1"
           d="m 1103.2309,1184.9304 v -10.6645"
           id="path62412"
           sodipodi:nodetypes="cc" />
        <path
           style="fill:#204a87;stroke:#ffffff;stroke-width:3;stroke-linecap:round;stroke-linejoin:miter;stroke-miterlimit:4;stroke-dasharray:none;stroke-opacity:1"
           d="m 1103.2309,1250.9304 v -10.6645"
           id="path62414"
           sodipodi:nodetypes="cc" />
      </g>
      <g
         id="g62544"
         transform="rotate(-90,1111.2309,1220.5981)"
         style="fill:#204a87">
        <path
           style="fill:#204a87;stroke:#ffbf2d;stroke-width:3;stroke-linecap:round;stroke-linejoin:miter;stroke-miterlimit:4;stroke-dasharray:none;stroke-opacity:1"
           d="m 1130.8986,1212.5981 h 18.6645"
           id="path62540" />
        <path
           style="fill:#204a87;stroke:#ffbf2d;stroke-width:3;stroke-linecap:round;stroke-linejoin:miter;stroke-miterlimit:4;stroke-dasharray:none;stroke-opacity:1"
           d="m 1056.8986,1212.5981 h 18.6645"
           id="path62542" />
      </g>
      <g
         id="g62675"
         transform="rotate(-157.91854,1104.7918,1220.5982)"
         style="fill:#204a87;stroke:#ffffff">
        <path
           style="fill:#204a87;stroke:#ffffff;stroke-width:3;stroke-linecap:round;stroke-linejoin:miter;stroke-miterlimit:4;stroke-dasharray:none;stroke-opacity:1"
           d="m 1103.2309,1184.9304 v -10.6645"
           id="path62671"
           sodipodi:nodetypes="cc" />
        <path
           style="fill:#204a87;stroke:#ffffff;stroke-width:3;stroke-linecap:round;stroke-linejoin:miter;stroke-miterlimit:4;stroke-dasharray:none;stroke-opacity:1"
           d="m 1103.2309,1250.9304 v -10.6645"
           id="path62673"
           sodipodi:nodetypes="cc" />
      </g>
      <g
         id="g62681"
         transform="rotate(158.93972,1101.7438,1220.5982)"
         style="fill:#204a87;stroke:#ffffff">
        <path
           style="fill:#204a87;stroke:#ffffff;stroke-width:3;stroke-linecap:round;stroke-linejoin:miter;stroke-miterlimit:4;stroke-dasharray:none;stroke-opacity:1"
           d="m 1103.2309,1184.9304 v -10.6645"
           id="path62677"
           sodipodi:nodetypes="cc" />
        <path
           style="fill:#204a87;stroke:#ffffff;stroke-width:3;stroke-linecap:round;stroke-linejoin:miter;stroke-miterlimit:4;stroke-dasharray:none;stroke-opacity:1"
           d="m 1103.2309,1250.9304 v -10.6645"
           id="path62679"
           sodipodi:nodetypes="cc" />
      </g>
      <g
         id="g63697"
         transform="translate(-0.08129879,16.000001)"
         style="fill:#204a87">
        <ellipse
           style="fill:#204a87;fill-opacity:1;stroke:none;stroke-width:3;stroke-linecap:round;stroke-miterlimit:4;stroke-dasharray:none;stroke-opacity:1"
           id="path62836"
           cx="1094.9548"
           cy="1208.0104"
           rx="3.1465847"
           ry="3.1053309" />
        <ellipse
           style="fill:#204a87;fill-opacity:1;stroke:none;stroke-width:3;stroke-linecap:round;stroke-miterlimit:4;stroke-dasharray:none;stroke-opacity:1"
           id="ellipse63120"
           cx="1111.6694"
           cy="1208.0104"
           rx="3.1465847"
           ry="3.1053309" />
      </g>
      <path
         style="fill:#204a87;fill-opacity:1;stroke:none;stroke-width:3.58014;stroke-linecap:round;stroke-miterlimit:4;stroke-dasharray:none;stroke-opacity:1"
         id="path63613"
         sodipodi:type="arc"
         sodipodi:cx="1103.2308"
         sodipodi:cy="1229.9496"
         sodipodi:rx="11.592158"
         sodipodi:ry="11.592199"
         sodipodi:start="0"
         sodipodi:end="3.1415927"
         sodipodi:arc-type="slice"
         d="m 1114.823,1229.9496 a 11.592158,11.592199 0 0 1 -5.7961,10.0391 11.592158,11.592199 0 0 1 -11.5921,0 11.592158,11.592199 0 0 1 -5.7961,-10.0391 h 11.5921 z" />
    </g>
  </g>
</svg>
